<svg width="1009" height="1024" viewBox="0 0 1009 1024" fill="none" xmlns="http://www.w3.org/2000/svg">
<g filter="url(#filter0_b_7_17763)">
<rect width="1008.84" height="1024" fill="#17A2B8"/>
</g>
<circle opacity="0.6" cx="513.378" cy="414.148" r="152.291" fill="#317F8B"/>
<path d="M330.546 668.762L324.376 692.374H320.145L316.204 678.226C316.107 677.882 315.999 677.472 315.881 676.999C315.762 676.525 315.644 676.04 315.526 675.545C315.418 675.05 315.321 674.598 315.235 674.188C315.159 673.768 315.106 673.445 315.073 673.219C315.052 673.445 315.003 673.763 314.928 674.172C314.853 674.581 314.761 675.034 314.653 675.529C314.557 676.013 314.449 676.498 314.33 676.982C314.212 677.456 314.104 677.876 314.007 678.242L310.131 692.374H305.916L299.762 668.762H303.655L307.063 682.603C307.17 683.044 307.278 683.524 307.386 684.04C307.504 684.546 307.612 685.058 307.709 685.575C307.816 686.092 307.913 686.598 307.999 687.093C308.085 687.577 308.155 688.019 308.209 688.417C308.263 688.008 308.333 687.556 308.419 687.061C308.505 686.554 308.597 686.043 308.694 685.526C308.801 684.999 308.909 684.493 309.017 684.008C309.135 683.524 309.254 683.087 309.372 682.7L313.216 668.762H316.995L320.92 682.748C321.038 683.147 321.151 683.594 321.259 684.089C321.378 684.584 321.491 685.09 321.598 685.607C321.706 686.124 321.803 686.624 321.889 687.109C321.975 687.594 322.045 688.03 322.099 688.417C322.174 687.89 322.271 687.287 322.39 686.608C322.508 685.93 322.643 685.241 322.793 684.541C322.944 683.841 323.095 683.195 323.246 682.603L326.637 668.762H330.546ZM340.624 674.156C342.217 674.156 343.585 674.485 344.726 675.141C345.867 675.798 346.745 676.729 347.359 677.935C347.972 679.141 348.279 680.584 348.279 682.264V684.299H336.344C336.387 686.032 336.85 687.367 337.733 688.304C338.626 689.241 339.875 689.709 341.48 689.709C342.621 689.709 343.644 689.602 344.548 689.386C345.464 689.16 346.406 688.832 347.375 688.401V691.486C346.481 691.906 345.571 692.213 344.645 692.406C343.719 692.6 342.61 692.697 341.318 692.697C339.563 692.697 338.018 692.358 336.683 691.68C335.359 690.991 334.32 689.968 333.566 688.611C332.823 687.254 332.452 685.569 332.452 683.556C332.452 681.553 332.791 679.852 333.469 678.452C334.147 677.052 335.1 675.987 336.328 675.254C337.555 674.522 338.987 674.156 340.624 674.156ZM340.624 677.015C339.429 677.015 338.46 677.402 337.717 678.178C336.985 678.953 336.554 680.089 336.425 681.585H344.565C344.554 680.692 344.403 679.9 344.112 679.211C343.832 678.522 343.402 677.984 342.82 677.596C342.25 677.209 341.517 677.015 340.624 677.015ZM356.371 692.374H352.559V667.244H356.371V692.374ZM369.001 692.697C367.31 692.697 365.846 692.369 364.608 691.712C363.369 691.055 362.417 690.048 361.749 688.692C361.081 687.335 360.748 685.612 360.748 683.524C360.748 681.349 361.114 679.572 361.846 678.194C362.578 676.816 363.59 675.798 364.882 675.141C366.185 674.485 367.676 674.156 369.356 674.156C370.422 674.156 371.386 674.264 372.247 674.479C373.119 674.684 373.857 674.937 374.46 675.238L373.329 678.275C372.672 678.005 371.999 677.779 371.31 677.596C370.621 677.413 369.959 677.322 369.324 677.322C368.279 677.322 367.407 677.553 366.707 678.016C366.018 678.479 365.501 679.168 365.157 680.083C364.823 680.999 364.656 682.135 364.656 683.491C364.656 684.805 364.828 685.914 365.173 686.818C365.517 687.712 366.029 688.39 366.707 688.853C367.386 689.306 368.22 689.532 369.211 689.532C370.19 689.532 371.068 689.413 371.843 689.176C372.618 688.939 373.351 688.633 374.04 688.256V691.55C373.361 691.938 372.635 692.223 371.859 692.406C371.084 692.6 370.131 692.697 369.001 692.697ZM394.067 683.394C394.067 684.88 393.873 686.199 393.485 687.351C393.098 688.503 392.532 689.478 391.789 690.275C391.046 691.061 390.153 691.664 389.108 692.083C388.064 692.493 386.885 692.697 385.571 692.697C384.344 692.697 383.219 692.493 382.196 692.083C381.173 691.664 380.285 691.061 379.531 690.275C378.788 689.478 378.212 688.503 377.803 687.351C377.394 686.199 377.189 684.88 377.189 683.394C377.189 681.424 377.528 679.755 378.207 678.388C378.896 677.009 379.875 675.96 381.146 675.238C382.417 674.517 383.929 674.156 385.684 674.156C387.332 674.156 388.785 674.517 390.045 675.238C391.305 675.96 392.29 677.009 393.001 678.388C393.711 679.766 394.067 681.435 394.067 683.394ZM381.098 683.394C381.098 684.697 381.254 685.812 381.566 686.738C381.889 687.664 382.384 688.374 383.052 688.869C383.719 689.354 384.581 689.596 385.636 689.596C386.691 689.596 387.552 689.354 388.22 688.869C388.888 688.374 389.378 687.664 389.69 686.738C390.002 685.812 390.158 684.697 390.158 683.394C390.158 682.092 390.002 680.988 389.69 680.083C389.378 679.168 388.888 678.474 388.22 678C387.552 677.515 386.686 677.273 385.62 677.273C384.048 677.273 382.901 677.801 382.18 678.856C381.458 679.911 381.098 681.424 381.098 683.394ZM418.632 674.156C420.635 674.156 422.142 674.673 423.154 675.707C424.177 676.74 424.688 678.398 424.688 680.681V692.374H420.893V681.359C420.893 680.003 420.629 678.98 420.102 678.291C419.574 677.602 418.772 677.257 417.695 677.257C416.188 677.257 415.1 677.742 414.433 678.711C413.776 679.669 413.447 681.063 413.447 682.894V692.374H409.652V681.359C409.652 680.455 409.534 679.701 409.297 679.098C409.071 678.485 408.721 678.027 408.247 677.725C407.773 677.413 407.176 677.257 406.454 677.257C405.41 677.257 404.575 677.494 403.951 677.968C403.337 678.441 402.896 679.141 402.626 680.067C402.357 680.982 402.223 682.108 402.223 683.443V692.374H398.427V674.495H401.383L401.916 676.902H402.126C402.492 676.277 402.944 675.766 403.482 675.367C404.032 674.958 404.64 674.657 405.308 674.463C405.975 674.258 406.67 674.156 407.391 674.156C408.726 674.156 409.851 674.393 410.766 674.867C411.682 675.33 412.365 676.04 412.818 676.999H413.108C413.668 676.03 414.449 675.314 415.45 674.851C416.452 674.388 417.512 674.156 418.632 674.156ZM437.108 674.156C438.702 674.156 440.069 674.485 441.211 675.141C442.352 675.798 443.229 676.729 443.843 677.935C444.457 679.141 444.764 680.584 444.764 682.264V684.299H432.828C432.871 686.032 433.334 687.367 434.217 688.304C435.111 689.241 436.36 689.709 437.964 689.709C439.106 689.709 440.129 689.602 441.033 689.386C441.948 689.16 442.89 688.832 443.859 688.401V691.486C442.966 691.906 442.056 692.213 441.13 692.406C440.204 692.6 439.095 692.697 437.803 692.697C436.048 692.697 434.503 692.358 433.168 691.68C431.843 690.991 430.804 689.968 430.05 688.611C429.308 687.254 428.936 685.569 428.936 683.556C428.936 681.553 429.275 679.852 429.954 678.452C430.632 677.052 431.585 675.987 432.812 675.254C434.04 674.522 435.472 674.156 437.108 674.156ZM437.108 677.015C435.913 677.015 434.944 677.402 434.201 678.178C433.469 678.953 433.038 680.089 432.909 681.585H441.049C441.038 680.692 440.888 679.9 440.597 679.211C440.317 678.522 439.886 677.984 439.305 677.596C438.734 677.209 438.002 677.015 437.108 677.015ZM464.645 674.156C466.906 674.156 468.613 674.657 469.765 675.658C470.928 676.659 471.509 678.221 471.509 680.342V692.374H468.812L468.085 689.838H467.956C467.45 690.485 466.928 691.017 466.39 691.437C465.851 691.857 465.227 692.17 464.516 692.374C463.816 692.589 462.96 692.697 461.948 692.697C460.882 692.697 459.929 692.503 459.089 692.116C458.25 691.717 457.587 691.114 457.103 690.307C456.618 689.499 456.376 688.476 456.376 687.238C456.376 685.397 457.06 684.013 458.427 683.087C459.805 682.161 461.884 681.65 464.661 681.553L467.762 681.44V680.503C467.762 679.265 467.472 678.382 466.89 677.855C466.32 677.327 465.512 677.063 464.468 677.063C463.574 677.063 462.707 677.192 461.867 677.451C461.028 677.709 460.209 678.027 459.412 678.404L458.185 675.723C459.057 675.26 460.048 674.883 461.157 674.592C462.277 674.301 463.439 674.156 464.645 674.156ZM467.746 683.83L465.437 683.911C463.542 683.976 462.212 684.299 461.447 684.88C460.683 685.462 460.301 686.258 460.301 687.271C460.301 688.153 460.565 688.799 461.092 689.209C461.62 689.607 462.314 689.806 463.176 689.806C464.489 689.806 465.577 689.435 466.438 688.692C467.31 687.938 467.746 686.834 467.746 685.381V683.83ZM480.618 667.244V673.3C480.618 674 480.597 674.689 480.554 675.367C480.522 676.035 480.489 676.557 480.457 676.934H480.618C481.103 676.159 481.776 675.507 482.637 674.98C483.509 674.441 484.624 674.172 485.98 674.172C488.102 674.172 489.808 674.953 491.1 676.514C492.392 678.065 493.038 680.363 493.038 683.41C493.038 685.435 492.742 687.136 492.15 688.514C491.558 689.892 490.723 690.937 489.647 691.647C488.581 692.347 487.326 692.697 485.884 692.697C484.527 692.697 483.429 692.45 482.589 691.954C481.76 691.448 481.108 690.861 480.635 690.194H480.36L479.666 692.374H476.823V667.244H480.618ZM484.979 677.257C483.902 677.257 483.046 677.472 482.411 677.903C481.787 678.334 481.334 678.98 481.054 679.841C480.775 680.692 480.629 681.774 480.618 683.087V683.427C480.618 685.419 480.931 686.942 481.555 687.997C482.19 689.052 483.343 689.58 485.011 689.58C486.336 689.58 487.353 689.047 488.064 687.981C488.775 686.904 489.13 685.365 489.13 683.362C489.13 681.338 488.775 679.814 488.064 678.791C487.364 677.768 486.336 677.257 484.979 677.257ZM513.259 683.394C513.259 684.88 513.065 686.199 512.678 687.351C512.29 688.503 511.725 689.478 510.982 690.275C510.239 691.061 509.345 691.664 508.301 692.083C507.256 692.493 506.077 692.697 504.764 692.697C503.536 692.697 502.411 692.493 501.388 692.083C500.365 691.664 499.477 691.061 498.723 690.275C497.98 689.478 497.404 688.503 496.995 687.351C496.586 686.199 496.382 684.88 496.382 683.394C496.382 681.424 496.721 679.755 497.399 678.388C498.088 677.009 499.068 675.96 500.338 675.238C501.609 674.517 503.122 674.156 504.877 674.156C506.524 674.156 507.978 674.517 509.238 675.238C510.497 675.96 511.482 677.009 512.193 678.388C512.904 679.766 513.259 681.435 513.259 683.394ZM500.29 683.394C500.29 684.697 500.446 685.812 500.758 686.738C501.081 687.664 501.577 688.374 502.244 688.869C502.912 689.354 503.773 689.596 504.828 689.596C505.884 689.596 506.745 689.354 507.412 688.869C508.08 688.374 508.57 687.664 508.882 686.738C509.194 685.812 509.351 684.697 509.351 683.394C509.351 682.092 509.194 680.988 508.882 680.083C508.57 679.168 508.08 678.474 507.412 678C506.745 677.515 505.878 677.273 504.812 677.273C503.24 677.273 502.094 677.801 501.372 678.856C500.651 679.911 500.29 681.424 500.29 683.394ZM524.629 674.156C526.89 674.156 528.597 674.657 529.749 675.658C530.912 676.659 531.493 678.221 531.493 680.342V692.374H528.796L528.069 689.838H527.94C527.434 690.485 526.912 691.017 526.373 691.437C525.835 691.857 525.211 692.17 524.5 692.374C523.8 692.589 522.944 692.697 521.932 692.697C520.866 692.697 519.913 692.503 519.073 692.116C518.233 691.717 517.571 691.114 517.087 690.307C516.602 689.499 516.36 688.476 516.36 687.238C516.36 685.397 517.044 684.013 518.411 683.087C519.789 682.161 521.867 681.65 524.645 681.553L527.746 681.44V680.503C527.746 679.265 527.456 678.382 526.874 677.855C526.303 677.327 525.496 677.063 524.452 677.063C523.558 677.063 522.691 677.192 521.851 677.451C521.011 677.709 520.193 678.027 519.396 678.404L518.169 675.723C519.041 675.26 520.032 674.883 521.141 674.592C522.26 674.301 523.423 674.156 524.629 674.156ZM527.73 683.83L525.421 683.911C523.526 683.976 522.196 684.299 521.431 684.88C520.667 685.462 520.285 686.258 520.285 687.271C520.285 688.153 520.548 688.799 521.076 689.209C521.604 689.607 522.298 689.806 523.159 689.806C524.473 689.806 525.561 689.435 526.422 688.692C527.294 687.938 527.73 686.834 527.73 685.381V683.83ZM545.867 674.156C546.169 674.156 546.497 674.172 546.853 674.205C547.208 674.237 547.515 674.28 547.773 674.334L547.418 677.887C547.192 677.822 546.912 677.774 546.578 677.742C546.255 677.709 545.964 677.693 545.706 677.693C545.028 677.693 544.382 677.806 543.768 678.032C543.154 678.248 542.61 678.581 542.137 679.034C541.663 679.475 541.291 680.03 541.022 680.697C540.753 681.365 540.618 682.14 540.618 683.023V692.374H536.807V674.495H539.779L540.295 677.645H540.473C540.828 677.009 541.27 676.428 541.797 675.9C542.325 675.373 542.928 674.953 543.606 674.641C544.295 674.318 545.049 674.156 545.867 674.156ZM557.092 692.697C554.96 692.697 553.248 691.922 551.956 690.371C550.675 688.81 550.034 686.511 550.034 683.475C550.034 680.406 550.686 678.086 551.989 676.514C553.302 674.942 555.03 674.156 557.173 674.156C558.077 674.156 558.869 674.28 559.547 674.528C560.225 674.764 560.807 675.087 561.291 675.497C561.787 675.906 562.207 676.363 562.551 676.869H562.729C562.675 676.536 562.61 676.057 562.535 675.432C562.47 674.797 562.438 674.21 562.438 673.672V667.244H566.25V692.374H563.278L562.6 689.935H562.438C562.115 690.452 561.706 690.921 561.211 691.34C560.726 691.75 560.145 692.078 559.466 692.326C558.799 692.573 558.007 692.697 557.092 692.697ZM558.158 689.612C559.784 689.612 560.931 689.144 561.598 688.207C562.266 687.271 562.61 685.865 562.632 683.992V683.491C562.632 681.489 562.309 679.954 561.663 678.888C561.017 677.812 559.838 677.273 558.126 677.273C556.758 677.273 555.714 677.828 554.993 678.937C554.282 680.035 553.927 681.569 553.927 683.54C553.927 685.51 554.282 687.017 554.993 688.062C555.714 689.096 556.769 689.612 558.158 689.612ZM600.489 674.156C602.492 674.156 603.999 674.673 605.011 675.707C606.034 676.74 606.546 678.398 606.546 680.681V692.374H602.75V681.359C602.75 680.003 602.486 678.98 601.959 678.291C601.431 677.602 600.629 677.257 599.552 677.257C598.045 677.257 596.958 677.742 596.29 678.711C595.633 679.669 595.305 681.063 595.305 682.894V692.374H591.509V681.359C591.509 680.455 591.391 679.701 591.154 679.098C590.928 678.485 590.578 678.027 590.104 677.725C589.631 677.413 589.033 677.257 588.312 677.257C587.267 677.257 586.433 677.494 585.808 677.968C585.194 678.441 584.753 679.141 584.484 680.067C584.215 680.982 584.08 682.108 584.08 683.443V692.374H580.285V674.495H583.24L583.773 676.902H583.983C584.349 676.277 584.801 675.766 585.34 675.367C585.889 674.958 586.497 674.657 587.165 674.463C587.832 674.258 588.527 674.156 589.248 674.156C590.583 674.156 591.709 674.393 592.624 674.867C593.539 675.33 594.223 676.04 594.675 676.999H594.966C595.526 676.03 596.306 675.314 597.307 674.851C598.309 674.388 599.369 674.156 600.489 674.156ZM609.146 674.495H613.281L616.947 684.703C617.108 685.166 617.254 685.623 617.383 686.075C617.523 686.517 617.641 686.953 617.738 687.384C617.846 687.814 617.932 688.245 617.997 688.676H618.094C618.201 688.116 618.352 687.491 618.546 686.802C618.75 686.102 618.976 685.402 619.224 684.703L622.745 674.495H626.831L619.159 694.829C618.718 695.992 618.174 696.982 617.528 697.801C616.893 698.63 616.139 699.254 615.267 699.674C614.395 700.105 613.399 700.32 612.279 700.32C611.741 700.32 611.273 700.288 610.874 700.223C610.476 700.17 610.137 700.11 609.857 700.046V697.009C610.083 697.063 610.368 697.112 610.713 697.155C611.057 697.198 611.412 697.219 611.779 697.219C612.457 697.219 613.044 697.085 613.539 696.816C614.034 696.546 614.454 696.164 614.799 695.669C615.143 695.184 615.429 694.63 615.655 694.005L616.285 692.326L609.146 674.495ZM647.068 677.386H642.723V692.374H638.928V677.386H636.005V675.561L638.928 674.447V673.203C638.928 671.685 639.165 670.479 639.639 669.585C640.123 668.692 640.812 668.051 641.706 667.664C642.61 667.265 643.687 667.066 644.936 667.066C645.754 667.066 646.503 667.136 647.181 667.276C647.859 667.405 648.43 667.556 648.893 667.728L647.908 670.603C647.542 670.485 647.133 670.377 646.68 670.28C646.228 670.172 645.744 670.118 645.227 670.118C644.365 670.118 643.73 670.388 643.321 670.926C642.923 671.464 642.723 672.25 642.723 673.284V674.495H647.068V677.386ZM659.181 674.156C659.482 674.156 659.811 674.172 660.166 674.205C660.522 674.237 660.828 674.28 661.087 674.334L660.731 677.887C660.505 677.822 660.225 677.774 659.892 677.742C659.569 677.709 659.278 677.693 659.019 677.693C658.341 677.693 657.695 677.806 657.081 678.032C656.468 678.248 655.924 678.581 655.45 679.034C654.976 679.475 654.605 680.03 654.336 680.697C654.067 681.365 653.932 682.14 653.932 683.023V692.374H650.12V674.495H653.092L653.609 677.645H653.787C654.142 677.009 654.583 676.428 655.111 675.9C655.639 675.373 656.242 674.953 656.92 674.641C657.609 674.318 658.363 674.156 659.181 674.156ZM668.193 674.495V692.374H664.398V674.495H668.193ZM666.32 667.647C666.901 667.647 667.402 667.803 667.822 668.116C668.252 668.428 668.468 668.966 668.468 669.731C668.468 670.485 668.252 671.023 667.822 671.346C667.402 671.658 666.901 671.814 666.32 671.814C665.717 671.814 665.205 671.658 664.785 671.346C664.376 671.023 664.172 670.485 664.172 669.731C664.172 668.966 664.376 668.428 664.785 668.116C665.205 667.803 665.717 667.647 666.32 667.647ZM680.758 674.156C682.352 674.156 683.719 674.485 684.861 675.141C686.002 675.798 686.88 676.729 687.493 677.935C688.107 679.141 688.414 680.584 688.414 682.264V684.299H676.478C676.521 686.032 676.984 687.367 677.867 688.304C678.761 689.241 680.01 689.709 681.614 689.709C682.756 689.709 683.779 689.602 684.683 689.386C685.598 689.16 686.54 688.832 687.509 688.401V691.486C686.616 691.906 685.706 692.213 684.78 692.406C683.854 692.6 682.745 692.697 681.453 692.697C679.698 692.697 678.153 692.358 676.818 691.68C675.493 690.991 674.454 689.968 673.701 688.611C672.958 687.254 672.586 685.569 672.586 683.556C672.586 681.553 672.925 679.852 673.604 678.452C674.282 677.052 675.235 675.987 676.462 675.254C677.69 674.522 679.122 674.156 680.758 674.156ZM680.758 677.015C679.563 677.015 678.594 677.402 677.851 678.178C677.119 678.953 676.688 680.089 676.559 681.585H684.699C684.688 680.692 684.538 679.9 684.247 679.211C683.967 678.522 683.536 677.984 682.955 677.596C682.384 677.209 681.652 677.015 680.758 677.015ZM702.013 674.156C704.026 674.156 705.593 674.678 706.713 675.723C707.843 676.756 708.408 678.42 708.408 680.713V692.374H704.613V681.424C704.613 680.035 704.328 678.996 703.757 678.307C703.186 677.607 702.303 677.257 701.108 677.257C699.375 677.257 698.169 677.79 697.491 678.856C696.823 679.922 696.489 681.467 696.489 683.491V692.374H692.694V674.495H695.649L696.182 676.918H696.392C696.78 676.293 697.259 675.782 697.83 675.384C698.411 674.974 699.057 674.668 699.768 674.463C700.489 674.258 701.238 674.156 702.013 674.156ZM719.73 692.697C717.598 692.697 715.886 691.922 714.594 690.371C713.313 688.81 712.672 686.511 712.672 683.475C712.672 680.406 713.324 678.086 714.626 676.514C715.94 674.942 717.668 674.156 719.811 674.156C720.715 674.156 721.507 674.28 722.185 674.528C722.863 674.764 723.445 675.087 723.929 675.497C724.425 675.906 724.844 676.363 725.189 676.869H725.367C725.313 676.536 725.248 676.057 725.173 675.432C725.108 674.797 725.076 674.21 725.076 673.672V667.244H728.888V692.374H725.916L725.237 689.935H725.076C724.753 690.452 724.344 690.921 723.849 691.34C723.364 691.75 722.783 692.078 722.104 692.326C721.437 692.573 720.645 692.697 719.73 692.697ZM720.796 689.612C722.422 689.612 723.569 689.144 724.236 688.207C724.904 687.271 725.248 685.865 725.27 683.992V683.491C725.27 681.489 724.947 679.954 724.301 678.888C723.655 677.812 722.476 677.273 720.764 677.273C719.396 677.273 718.352 677.828 717.631 678.937C716.92 680.035 716.565 681.569 716.565 683.54C716.565 685.51 716.92 687.017 717.631 688.062C718.352 689.096 719.407 689.612 720.796 689.612ZM362.822 736.009C362.225 736.009 361.741 735.931 361.371 735.774V734.502C361.804 734.628 362.231 734.69 362.652 734.69C363.142 734.69 363.5 734.555 363.726 734.285C363.958 734.022 364.075 733.616 364.075 733.07V721.048H365.639V732.957C365.639 734.992 364.7 736.009 362.822 736.009ZM363.943 718.25C363.943 717.892 364.031 717.632 364.207 717.468C364.382 717.299 364.602 717.214 364.866 717.214C365.117 717.214 365.334 717.299 365.516 717.468C365.698 717.638 365.789 717.899 365.789 718.25C365.789 718.602 365.698 718.866 365.516 719.042C365.334 719.211 365.117 719.296 364.866 719.296C364.602 719.296 364.382 719.211 364.207 719.042C364.031 718.866 363.943 718.602 363.943 718.25ZM370.425 721.048V727.747C370.425 728.589 370.616 729.217 370.999 729.631C371.382 730.046 371.982 730.253 372.799 730.253C373.879 730.253 374.667 729.958 375.163 729.367C375.666 728.777 375.917 727.813 375.917 726.475V721.048H377.481V731.374H376.19L375.964 729.989H375.88C375.559 730.498 375.113 730.887 374.542 731.157C373.976 731.428 373.329 731.563 372.601 731.563C371.345 731.563 370.403 731.264 369.775 730.668C369.153 730.071 368.842 729.116 368.842 727.803V721.048H370.425ZM387.468 728.557C387.468 729.518 387.11 730.259 386.394 730.781C385.678 731.302 384.673 731.563 383.379 731.563C382.01 731.563 380.942 731.346 380.176 730.913V729.462C380.672 729.713 381.203 729.911 381.768 730.055C382.339 730.2 382.889 730.272 383.417 730.272C384.233 730.272 384.861 730.143 385.301 729.886C385.74 729.622 385.96 729.223 385.96 728.689C385.96 728.287 385.784 727.945 385.433 727.662C385.087 727.373 384.409 727.034 383.398 726.645C382.437 726.287 381.752 725.976 381.344 725.712C380.942 725.442 380.64 725.137 380.439 724.798C380.245 724.459 380.147 724.054 380.147 723.583C380.147 722.741 380.49 722.078 381.174 721.595C381.859 721.105 382.798 720.86 383.991 720.86C385.103 720.86 386.19 721.086 387.251 721.538L386.695 722.81C385.659 722.383 384.72 722.17 383.878 722.17C383.137 722.17 382.578 722.286 382.201 722.518C381.824 722.751 381.636 723.071 381.636 723.479C381.636 723.755 381.705 723.991 381.843 724.186C381.988 724.38 382.217 724.566 382.531 724.742C382.845 724.917 383.448 725.172 384.34 725.505C385.565 725.951 386.39 726.4 386.818 726.852C387.251 727.304 387.468 727.873 387.468 728.557ZM393.356 730.272C393.632 730.272 393.899 730.253 394.157 730.215C394.414 730.171 394.618 730.127 394.769 730.083V731.28C394.6 731.362 394.348 731.428 394.015 731.478C393.689 731.534 393.394 731.563 393.13 731.563C391.133 731.563 390.134 730.511 390.134 728.406V722.264H388.655V721.51L390.134 720.86L390.793 718.655H391.698V721.048H394.694V722.264H391.698V728.34C391.698 728.962 391.845 729.44 392.141 729.773C392.436 730.105 392.841 730.272 393.356 730.272ZM408.204 731.374L407.893 729.904H407.818C407.303 730.551 406.788 730.991 406.273 731.223C405.764 731.45 405.126 731.563 404.36 731.563C403.336 731.563 402.532 731.299 401.948 730.771C401.37 730.244 401.081 729.493 401.081 728.52C401.081 726.434 402.749 725.341 406.084 725.241L407.836 725.184V724.544C407.836 723.733 407.661 723.137 407.309 722.754C406.963 722.364 406.408 722.17 405.641 722.17C404.781 722.17 403.807 722.433 402.721 722.961L402.24 721.764C402.749 721.488 403.305 721.271 403.908 721.114C404.517 720.957 405.126 720.879 405.735 720.879C406.967 720.879 407.877 721.152 408.468 721.699C409.064 722.245 409.363 723.121 409.363 724.327V731.374H408.204ZM404.671 730.272C405.644 730.272 406.408 730.005 406.96 729.471C407.519 728.937 407.799 728.19 407.799 727.229V726.296L406.235 726.362C404.991 726.406 404.093 726.601 403.54 726.946C402.994 727.285 402.721 727.816 402.721 728.538C402.721 729.104 402.89 729.534 403.229 729.829C403.575 730.124 404.055 730.272 404.671 730.272ZM421.733 731.563C420.238 731.563 419.079 731.104 418.256 730.187C417.44 729.264 417.032 727.961 417.032 726.277C417.032 724.55 417.446 723.215 418.275 722.273C419.111 721.331 420.298 720.86 421.836 720.86C422.333 720.86 422.829 720.913 423.325 721.02C423.821 721.127 424.211 721.253 424.493 721.397L424.013 722.725C423.667 722.587 423.29 722.474 422.882 722.386C422.474 722.292 422.113 722.245 421.799 722.245C419.701 722.245 418.652 723.583 418.652 726.258C418.652 727.527 418.906 728.501 419.415 729.179C419.93 729.857 420.69 730.196 421.695 730.196C422.556 730.196 423.438 730.011 424.342 729.641V731.026C423.652 731.384 422.782 731.563 421.733 731.563ZM435.714 726.202C435.714 727.885 435.29 729.201 434.442 730.149C433.594 731.092 432.423 731.563 430.928 731.563C430.005 731.563 429.185 731.346 428.469 730.913C427.753 730.479 427.2 729.857 426.811 729.047C426.421 728.237 426.227 727.288 426.227 726.202C426.227 724.519 426.648 723.209 427.489 722.273C428.331 721.331 429.499 720.86 430.994 720.86C432.438 720.86 433.585 721.34 434.433 722.301C435.287 723.262 435.714 724.563 435.714 726.202ZM427.847 726.202C427.847 727.521 428.111 728.526 428.639 729.217C429.166 729.908 429.942 730.253 430.966 730.253C431.989 730.253 432.765 729.911 433.293 729.226C433.827 728.535 434.093 727.527 434.093 726.202C434.093 724.889 433.827 723.894 433.293 723.215C432.765 722.531 431.983 722.188 430.947 722.188C429.923 722.188 429.15 722.524 428.629 723.196C428.108 723.869 427.847 724.87 427.847 726.202ZM439.935 721.048V727.747C439.935 728.589 440.126 729.217 440.509 729.631C440.893 730.046 441.492 730.253 442.309 730.253C443.389 730.253 444.177 729.958 444.674 729.367C445.176 728.777 445.427 727.813 445.427 726.475V721.048H446.991V731.374H445.7L445.474 729.989H445.39C445.069 730.498 444.623 730.887 444.052 731.157C443.487 731.428 442.84 731.563 442.111 731.563C440.855 731.563 439.913 731.264 439.285 730.668C438.663 730.071 438.352 729.116 438.352 727.803V721.048H439.935ZM455.122 731.563C454.45 731.563 453.834 731.44 453.275 731.195C452.722 730.944 452.258 730.561 451.881 730.046H451.768C451.843 730.649 451.881 731.22 451.881 731.76V736.009H450.317V721.048H451.589L451.805 722.462H451.881C452.283 721.896 452.751 721.488 453.285 721.237C453.818 720.986 454.431 720.86 455.122 720.86C456.491 720.86 457.546 721.328 458.287 722.264C459.035 723.2 459.408 724.512 459.408 726.202C459.408 727.898 459.028 729.217 458.268 730.159C457.515 731.095 456.466 731.563 455.122 731.563ZM454.896 722.188C453.84 722.188 453.077 722.48 452.606 723.065C452.135 723.649 451.893 724.578 451.881 725.853V726.202C451.881 727.653 452.123 728.692 452.606 729.32C453.09 729.942 453.866 730.253 454.933 730.253C455.825 730.253 456.522 729.892 457.025 729.17C457.534 728.447 457.788 727.452 457.788 726.183C457.788 724.895 457.534 723.909 457.025 723.225C456.522 722.534 455.813 722.188 454.896 722.188ZM463.714 731.374H462.15V716.715H463.714V731.374ZM471.392 731.563C469.866 731.563 468.66 731.098 467.775 730.168C466.895 729.239 466.456 727.948 466.456 726.296C466.456 724.632 466.864 723.31 467.68 722.33C468.503 721.35 469.605 720.86 470.987 720.86C472.281 720.86 473.305 721.287 474.059 722.141C474.812 722.989 475.189 724.11 475.189 725.505V726.494H468.076C468.107 727.706 468.412 728.626 468.99 729.254C469.574 729.882 470.394 730.196 471.449 730.196C472.561 730.196 473.66 729.964 474.746 729.499V730.894C474.194 731.132 473.669 731.302 473.173 731.402C472.683 731.509 472.089 731.563 471.392 731.563ZM470.968 722.17C470.139 722.17 469.477 722.44 468.98 722.98C468.491 723.52 468.202 724.267 468.114 725.222H473.512C473.512 724.236 473.292 723.482 472.853 722.961C472.413 722.433 471.785 722.17 470.968 722.17ZM491.789 726.202C491.789 727.885 491.365 729.201 490.517 730.149C489.67 731.092 488.498 731.563 487.003 731.563C486.08 731.563 485.26 731.346 484.544 730.913C483.828 730.479 483.276 729.857 482.886 729.047C482.497 728.237 482.302 727.288 482.302 726.202C482.302 724.519 482.723 723.209 483.565 722.273C484.406 721.331 485.574 720.86 487.069 720.86C488.514 720.86 489.66 721.34 490.508 722.301C491.362 723.262 491.789 724.563 491.789 726.202ZM483.923 726.202C483.923 727.521 484.186 728.526 484.714 729.217C485.242 729.908 486.017 730.253 487.041 730.253C488.065 730.253 488.84 729.911 489.368 729.226C489.902 728.535 490.169 727.527 490.169 726.202C490.169 724.889 489.902 723.894 489.368 723.215C488.84 722.531 488.058 722.188 487.022 722.188C485.998 722.188 485.226 722.524 484.705 723.196C484.183 723.869 483.923 724.87 483.923 726.202ZM499.194 722.264H496.566V731.374H495.002V722.264H493.155V721.557L495.002 720.992V720.417C495.002 717.88 496.111 716.611 498.328 716.611C498.874 716.611 499.515 716.721 500.25 716.941L499.845 718.194C499.242 717.999 498.727 717.902 498.299 717.902C497.709 717.902 497.272 718.1 496.99 718.495C496.707 718.885 496.566 719.513 496.566 720.38V721.048H499.194V722.264ZM510.217 731.563C508.722 731.563 507.564 731.104 506.741 730.187C505.924 729.264 505.516 727.961 505.516 726.277C505.516 724.55 505.931 723.215 506.76 722.273C507.595 721.331 508.782 720.86 510.321 720.86C510.817 720.86 511.313 720.913 511.81 721.02C512.306 721.127 512.695 721.253 512.978 721.397L512.497 722.725C512.152 722.587 511.775 722.474 511.367 722.386C510.958 722.292 510.597 722.245 510.283 722.245C508.185 722.245 507.137 723.583 507.137 726.258C507.137 727.527 507.391 728.501 507.9 729.179C508.415 729.857 509.175 730.196 510.18 730.196C511.04 730.196 511.923 730.011 512.827 729.641V731.026C512.136 731.384 511.266 731.563 510.217 731.563ZM516.85 731.374H515.286V716.715H516.85V731.374ZM521.73 731.374H520.166V721.048H521.73V731.374ZM520.034 718.25C520.034 717.892 520.122 717.632 520.298 717.468C520.474 717.299 520.694 717.214 520.958 717.214C521.209 717.214 521.425 717.299 521.608 717.468C521.79 717.638 521.881 717.899 521.881 718.25C521.881 718.602 521.79 718.866 521.608 719.042C521.425 719.211 521.209 719.296 520.958 719.296C520.694 719.296 520.474 719.211 520.298 719.042C520.122 718.866 520.034 718.602 520.034 718.25ZM529.173 731.563C527.678 731.563 526.519 731.104 525.696 730.187C524.88 729.264 524.472 727.961 524.472 726.277C524.472 724.55 524.886 723.215 525.715 722.273C526.551 721.331 527.738 720.86 529.277 720.86C529.773 720.86 530.269 720.913 530.765 721.02C531.261 721.127 531.651 721.253 531.933 721.397L531.453 722.725C531.107 722.587 530.731 722.474 530.322 722.386C529.914 722.292 529.553 722.245 529.239 722.245C527.141 722.245 526.092 723.583 526.092 726.258C526.092 727.527 526.347 728.501 526.855 729.179C527.37 729.857 528.13 730.196 529.135 730.196C529.996 730.196 530.878 730.011 531.783 729.641V731.026C531.092 731.384 530.222 731.563 529.173 731.563ZM535.787 726.089C536.057 725.706 536.468 725.203 537.021 724.581L540.356 721.048H542.212L538.029 725.448L542.504 731.374H540.61L536.964 726.494L535.787 727.511V731.374H534.242V716.715H535.787V724.487C535.787 724.833 535.762 725.367 535.711 726.089H535.787ZM551.04 728.557C551.04 729.518 550.682 730.259 549.966 730.781C549.25 731.302 548.245 731.563 546.951 731.563C545.582 731.563 544.514 731.346 543.748 730.913V729.462C544.244 729.713 544.775 729.911 545.34 730.055C545.911 730.2 546.461 730.272 546.989 730.272C547.805 730.272 548.433 730.143 548.873 729.886C549.312 729.622 549.532 729.223 549.532 728.689C549.532 728.287 549.356 727.945 549.005 727.662C548.659 727.373 547.981 727.034 546.97 726.645C546.009 726.287 545.324 725.976 544.916 725.712C544.514 725.442 544.212 725.137 544.011 724.798C543.817 724.459 543.719 724.054 543.719 723.583C543.719 722.741 544.062 722.078 544.746 721.595C545.431 721.105 546.37 720.86 547.563 720.86C548.675 720.86 549.762 721.086 550.823 721.538L550.267 722.81C549.231 722.383 548.292 722.17 547.45 722.17C546.709 722.17 546.15 722.286 545.773 722.518C545.396 722.751 545.208 723.071 545.208 723.479C545.208 723.755 545.277 723.991 545.415 724.186C545.56 724.38 545.789 724.566 546.103 724.742C546.417 724.917 547.02 725.172 547.912 725.505C549.137 725.951 549.963 726.4 550.39 726.852C550.823 727.304 551.04 727.873 551.04 728.557ZM564.955 731.374L564.644 729.904H564.569C564.054 730.551 563.539 730.991 563.023 731.223C562.515 731.45 561.877 731.563 561.111 731.563C560.087 731.563 559.283 731.299 558.699 730.771C558.121 730.244 557.832 729.493 557.832 728.52C557.832 726.434 559.5 725.341 562.835 725.241L564.587 725.184V724.544C564.587 723.733 564.412 723.137 564.06 722.754C563.714 722.364 563.159 722.17 562.392 722.17C561.532 722.17 560.558 722.433 559.472 722.961L558.991 721.764C559.5 721.488 560.056 721.271 560.659 721.114C561.268 720.957 561.877 720.879 562.486 720.879C563.718 720.879 564.628 721.152 565.219 721.699C565.815 722.245 566.114 723.121 566.114 724.327V731.374H564.955ZM561.422 730.272C562.395 730.272 563.159 730.005 563.711 729.471C564.27 728.937 564.55 728.19 564.55 727.229V726.296L562.986 726.362C561.742 726.406 560.844 726.601 560.291 726.946C559.745 727.285 559.472 727.816 559.472 728.538C559.472 729.104 559.641 729.534 559.98 729.829C560.326 730.124 560.806 730.272 561.422 730.272ZM576.411 731.374V724.694C576.411 723.853 576.22 723.225 575.836 722.81C575.453 722.396 574.853 722.188 574.037 722.188C572.957 722.188 572.165 722.48 571.663 723.065C571.16 723.649 570.909 724.613 570.909 725.957V731.374H569.345V721.048H570.617L570.871 722.462H570.947C571.267 721.953 571.716 721.56 572.294 721.284C572.872 721.001 573.516 720.86 574.225 720.86C575.469 720.86 576.405 721.161 577.033 721.764C577.661 722.361 577.975 723.319 577.975 724.638V731.374H576.411ZM588.225 729.989H588.141C587.418 731.038 586.338 731.563 584.9 731.563C583.549 731.563 582.497 731.101 581.744 730.178C580.996 729.254 580.622 727.942 580.622 726.24C580.622 724.537 580.999 723.215 581.753 722.273C582.507 721.331 583.556 720.86 584.9 720.86C586.3 720.86 587.374 721.369 588.122 722.386H588.244L588.178 721.642L588.141 720.917V716.715H589.705V731.374H588.433L588.225 729.989ZM585.098 730.253C586.165 730.253 586.938 729.964 587.415 729.386C587.899 728.802 588.141 727.863 588.141 726.569V726.24C588.141 724.776 587.896 723.733 587.406 723.112C586.922 722.484 586.146 722.17 585.079 722.17C584.162 722.17 583.458 722.528 582.968 723.244C582.485 723.953 582.243 724.958 582.243 726.258C582.243 727.577 582.485 728.573 582.968 729.245C583.452 729.917 584.162 730.253 585.098 730.253ZM606.474 731.374L604.581 725.316C604.461 724.946 604.238 724.104 603.912 722.791H603.836C603.585 723.891 603.365 724.738 603.177 725.335L601.227 731.374H599.418L596.601 721.048H598.24C598.906 723.642 599.412 725.618 599.757 726.974C600.109 728.331 600.31 729.245 600.36 729.716H600.435C600.504 729.358 600.614 728.896 600.765 728.331C600.922 727.76 601.057 727.307 601.17 726.974L603.064 721.048H604.76L606.606 726.974C606.958 728.055 607.197 728.962 607.322 729.697H607.398C607.423 729.471 607.489 729.122 607.596 728.651C607.709 728.18 608.365 725.646 609.565 721.048H611.185L608.33 731.374H606.474ZM617.422 731.563C615.896 731.563 614.69 731.098 613.804 730.168C612.925 729.239 612.485 727.948 612.485 726.296C612.485 724.632 612.893 723.31 613.71 722.33C614.533 721.35 615.635 720.86 617.017 720.86C618.311 720.86 619.334 721.287 620.088 722.141C620.842 722.989 621.219 724.11 621.219 725.505V726.494H614.106C614.137 727.706 614.442 728.626 615.019 729.254C615.604 729.882 616.423 730.196 617.478 730.196C618.59 730.196 619.689 729.964 620.776 729.499V730.894C620.223 731.132 619.699 731.302 619.203 731.402C618.713 731.509 618.119 731.563 617.422 731.563ZM616.998 722.17C616.169 722.17 615.506 722.44 615.01 722.98C614.52 723.52 614.231 724.267 614.143 725.222H619.542C619.542 724.236 619.322 723.482 618.882 722.961C618.443 722.433 617.814 722.17 616.998 722.17ZM635.567 728.557C635.567 729.518 635.209 730.259 634.493 730.781C633.777 731.302 632.772 731.563 631.478 731.563C630.109 731.563 629.041 731.346 628.275 730.913V729.462C628.771 729.713 629.302 729.911 629.867 730.055C630.439 730.2 630.989 730.272 631.516 730.272C632.333 730.272 632.961 730.143 633.4 729.886C633.84 729.622 634.06 729.223 634.06 728.689C634.06 728.287 633.884 727.945 633.532 727.662C633.187 727.373 632.508 727.034 631.497 726.645C630.536 726.287 629.852 725.976 629.443 725.712C629.041 725.442 628.74 725.137 628.539 724.798C628.344 724.459 628.247 724.054 628.247 723.583C628.247 722.741 628.589 722.078 629.274 721.595C629.958 721.105 630.897 720.86 632.091 720.86C633.203 720.86 634.289 721.086 635.351 721.538L634.795 722.81C633.758 722.383 632.819 722.17 631.978 722.17C631.237 722.17 630.678 722.286 630.301 722.518C629.924 722.751 629.736 723.071 629.736 723.479C629.736 723.755 629.805 723.991 629.943 724.186C630.087 724.38 630.316 724.566 630.631 724.742C630.945 724.917 631.548 725.172 632.439 725.505C633.664 725.951 634.49 726.4 634.917 726.852C635.351 727.304 635.567 727.873 635.567 728.557ZM641.456 730.272C641.732 730.272 641.999 730.253 642.256 730.215C642.514 730.171 642.718 730.127 642.869 730.083V731.28C642.699 731.362 642.448 731.428 642.115 731.478C641.788 731.534 641.493 731.563 641.229 731.563C639.232 731.563 638.233 730.511 638.233 728.406V722.264H636.754V721.51L638.233 720.86L638.893 718.655H639.797V721.048H642.793V722.264H639.797V728.34C639.797 728.962 639.945 729.44 640.24 729.773C640.535 730.105 640.941 730.272 641.456 730.272ZM651.291 731.374L650.98 729.904H650.905C650.39 730.551 649.875 730.991 649.36 731.223C648.851 731.45 648.214 731.563 647.447 731.563C646.424 731.563 645.62 731.299 645.036 730.771C644.458 730.244 644.169 729.493 644.169 728.52C644.169 726.434 645.836 725.341 649.172 725.241L650.924 725.184V724.544C650.924 723.733 650.748 723.137 650.396 722.754C650.051 722.364 649.495 722.17 648.729 722.17C647.868 722.17 646.895 722.433 645.808 722.961L645.328 721.764C645.836 721.488 646.392 721.271 646.995 721.114C647.604 720.957 648.214 720.879 648.823 720.879C650.054 720.879 650.965 721.152 651.555 721.699C652.152 722.245 652.45 723.121 652.45 724.327V731.374H651.291ZM647.758 730.272C648.732 730.272 649.495 730.005 650.048 729.471C650.607 728.937 650.886 728.19 650.886 727.229V726.296L649.322 726.362C648.079 726.406 647.181 726.601 646.628 726.946C646.081 727.285 645.808 727.816 645.808 728.538C645.808 729.104 645.978 729.534 646.317 729.829C646.662 730.124 647.143 730.272 647.758 730.272ZM660.392 720.86C660.851 720.86 661.262 720.898 661.626 720.973L661.41 722.424C660.983 722.33 660.606 722.283 660.279 722.283C659.444 722.283 658.728 722.622 658.131 723.3C657.541 723.978 657.246 724.823 657.246 725.834V731.374H655.682V721.048H656.972L657.151 722.961H657.227C657.61 722.289 658.072 721.771 658.612 721.406C659.152 721.042 659.745 720.86 660.392 720.86ZM666.893 730.272C667.169 730.272 667.436 730.253 667.694 730.215C667.951 730.171 668.155 730.127 668.306 730.083V731.28C668.137 731.362 667.885 731.428 667.552 731.478C667.226 731.534 666.931 731.563 666.667 731.563C664.67 731.563 663.671 730.511 663.671 728.406V722.264H662.192V721.51L663.671 720.86L664.33 718.655H665.235V721.048H668.231V722.264H665.235V728.34C665.235 728.962 665.382 729.44 665.678 729.773C665.973 730.105 666.378 730.272 666.893 730.272Z" fill="white"/>
<path d="M564.658 581.738H484.137C470.327 581.738 459.029 570.484 459.029 556.73V485.871C459.029 472.116 470.327 460.863 484.137 460.863H564.659C578.469 460.863 589.767 472.116 589.767 485.871V556.73C589.767 570.483 578.468 581.738 564.658 581.738Z" fill="white"/>
<path d="M564.658 460.862C578.468 460.862 589.766 472.115 589.766 485.87V556.729C589.766 570.483 578.468 581.737 564.658 581.737H484.138C470.328 581.737 459.029 570.483 459.029 556.729V485.87C459.029 472.115 470.328 460.862 484.138 460.862H564.658V460.862ZM564.658 456.909H484.138C480.227 456.909 476.425 457.679 472.837 459.197C469.379 460.661 466.27 462.751 463.599 465.413C460.927 468.074 458.827 471.171 457.358 474.614C455.834 478.188 455.06 481.975 455.06 485.87V556.729C455.06 560.624 455.834 564.411 457.358 567.984C458.827 571.429 460.926 574.524 463.599 577.185C466.27 579.846 469.38 581.938 472.837 583.402C476.425 584.919 480.227 585.69 484.138 585.69H564.659C568.57 585.69 572.372 584.919 575.96 583.402C579.418 581.938 582.526 579.847 585.198 577.185C587.869 574.524 589.969 571.428 591.439 567.984C592.963 564.411 593.736 560.624 593.736 556.729V485.87C593.736 481.975 592.963 478.188 591.439 474.614C589.969 471.17 587.87 468.074 585.198 465.413C582.526 462.752 579.417 460.661 575.96 459.197C572.372 457.679 568.569 456.909 564.658 456.909Z" fill="#317F8B"/>
<path d="M587.966 537.923C575.429 539.387 562.933 539.747 562.933 539.747C562.933 539.747 556.57 508.142 554.805 483.358C553.506 464.995 554.728 450.382 562.933 455.148C566.708 457.341 571.056 461.472 575.589 466.711C592.592 486.368 612.128 521.666 613.199 528.99C613.891 533.701 600.911 536.403 587.966 537.923Z" fill="white"/>
<path d="M561.255 541.852L560.913 540.152C560.874 539.958 556.982 520.538 554.464 500.43C552.978 488.575 552.253 478.786 552.305 471.338C552.376 461.164 553.859 455.394 556.972 453.18C558.339 452.207 560.663 451.453 563.974 453.376C574.889 459.719 588.743 479.924 596.029 491.403C600.889 499.06 605.542 507.109 609.131 514.067C611.659 518.968 614.772 525.485 615.243 528.693C615.38 529.625 615.288 531.038 614.075 532.477C612.32 534.557 608.677 536.186 602.607 537.6C598.156 538.637 592.438 539.529 585.61 540.252C574.049 541.475 563.103 541.799 562.994 541.802L561.255 541.852ZM560.092 456.293C559.694 456.293 559.485 456.442 559.37 456.523C558.024 457.48 553.99 463.437 558.555 499.9C560.623 516.415 563.625 532.469 564.623 537.63C568.142 537.489 576.495 537.084 585.197 536.162C605.399 534.022 609.912 531.023 610.915 529.834C611.193 529.505 611.171 529.353 611.16 529.287C610.574 525.295 602.953 510.001 592.542 493.598C580.485 474.603 569.316 461.236 561.896 456.925C561.054 456.436 560.482 456.293 560.092 456.293Z" fill="#317F8B"/>
<path d="M499.141 453.983L496.604 473.101L495.16 483.97L492.081 507.177C492.081 507.177 486.455 510.989 477.096 514.009C473.598 515.139 469.571 516.15 465.126 516.813C457.86 517.902 449.458 518.041 440.356 516.186C416.938 511.409 402.884 494.084 396.8 485.373C385.04 468.56 383.23 464.014 386.499 456.936C388.995 451.511 393.271 450.521 393.271 450.521C393.271 450.521 393.06 446.186 396.505 444.645C406.829 440.027 420.129 452.36 420.129 452.36C420.129 452.36 420.625 439.097 427.752 442.159C432.661 444.27 433.775 458.709 433.775 458.709C433.775 458.709 440.365 467.143 450.835 468.263C456.306 468.848 463.877 467.267 471.396 464.97C471.484 464.944 471.572 464.92 471.659 464.888C475.667 463.656 479.648 462.227 483.294 460.814C484.929 460.183 486.496 459.55 487.965 458.945C494.535 456.232 499.141 453.983 499.141 453.983Z" fill="white"/>
<path opacity="0.35" d="M396.796 485.373C402.887 494.082 416.938 511.41 440.354 516.186C455.021 519.175 467.874 516.979 477.097 514.006C486.456 510.989 492.081 507.175 492.081 507.175L492.494 488.862C492.494 488.862 486.117 482.74 480.177 485.236C473.04 488.235 475.328 498.428 465.135 501.263C436.799 509.143 413.78 494.745 406.374 488.424C396.098 479.655 393.417 474.132 391.972 471.853C388.979 467.138 386.668 463.432 385.365 460.114C384.037 465.727 386.872 471.179 396.796 485.373Z" fill="#317F8B"/>
<path d="M454.485 519.664C449.595 519.664 444.726 519.175 439.941 518.198C429.415 516.051 419.594 511.217 410.753 503.828C405.063 499.074 399.798 493.258 395.106 486.548C389.379 478.356 385.739 472.729 384.079 468.21C382.488 463.878 382.646 460.364 384.621 456.076C386.566 451.855 389.506 449.913 391.283 449.081C391.573 446.91 392.704 444.095 395.659 442.773C404.054 439.017 413.743 444.83 418.538 448.408C418.585 448.165 418.637 447.916 418.692 447.665C419.487 444.114 420.859 441.704 422.77 440.503C423.944 439.766 425.902 439.128 428.572 440.276C431.281 441.442 433.258 444.874 434.616 450.768C435.311 453.788 435.646 456.623 435.772 457.879C437.23 459.523 442.929 465.351 451.057 466.22C465.894 467.803 497.91 452.294 498.232 452.137C498.914 451.804 499.726 451.872 500.343 452.314C500.96 452.756 501.283 453.501 501.184 454.251L494.129 507.444C494.052 508.024 493.731 508.544 493.245 508.872C493.009 509.033 487.35 512.831 477.942 515.893C472.431 517.686 466.762 518.854 461.092 519.366C458.889 519.564 456.685 519.664 454.485 519.664ZM393.748 452.517C393.482 452.589 390.333 453.528 388.37 457.789C385.727 463.526 386.377 466.87 398.49 484.198C409.879 500.489 424.498 510.853 440.768 514.172C455.591 517.195 468.467 514.652 476.659 511.986C483.603 509.726 488.391 507.03 490.163 505.954L496.599 457.435C493.237 458.964 487.737 461.366 481.565 463.67C467.827 468.798 457.413 471.03 450.617 470.305C439.406 469.109 432.439 460.344 432.148 459.972C431.899 459.653 431.749 459.269 431.719 458.867C431.717 458.833 431.437 455.326 430.584 451.642C429.147 445.432 427.428 444.258 426.936 444.047C425.705 443.517 425.173 443.851 424.972 443.976C423.238 445.062 422.299 449.578 422.186 452.436C422.154 453.238 421.655 453.95 420.91 454.256C420.164 454.562 419.309 454.408 418.718 453.861C418.596 453.748 406.296 442.517 397.348 446.521C395.287 447.443 395.324 450.226 395.33 450.426C395.391 451.44 394.745 452.306 393.748 452.517Z" fill="#317F8B"/>
<path d="M421.826 452.357C421.874 452.934 421.787 453.46 421.672 453.915C421.614 454.15 421.542 454.353 421.47 454.562C421.396 454.757 421.316 454.956 421.236 455.133C420.911 455.863 420.559 456.467 420.225 457.053C419.889 457.636 419.566 458.191 419.266 458.746L419.046 459.164C418.976 459.304 418.903 459.443 418.836 459.584L418.641 460.009L418.455 460.438L418.286 460.874L418.129 461.317C418.076 461.465 418.036 461.616 417.989 461.766C417.939 461.917 417.901 462.07 417.861 462.223C417.704 462.837 417.569 463.469 417.491 464.121C417.406 464.772 417.351 465.439 417.336 466.118C417.319 466.459 417.325 466.8 417.322 467.148C417.316 467.322 417.331 467.493 417.332 467.669C417.336 467.844 417.341 468.019 417.34 468.196V468.208C417.34 468.345 417.229 468.456 417.091 468.456C416.994 468.456 416.912 468.402 416.871 468.321C416.54 467.682 416.24 467.018 416.009 466.325C415.765 465.633 415.591 464.913 415.462 464.175C415.211 462.7 415.216 461.139 415.493 459.615L415.608 459.046C415.652 458.858 415.701 458.672 415.747 458.483C415.797 458.297 415.852 458.114 415.905 457.927C415.959 457.743 416.024 457.564 416.084 457.382C416.332 456.659 416.639 455.973 416.956 455.329C417.271 454.686 417.607 454.08 417.879 453.553C418.166 453.02 418.328 452.588 418.423 452.354L418.623 451.865C418.97 451.017 419.941 450.609 420.793 450.955C421.395 451.201 421.775 451.755 421.826 452.357Z" fill="#317F8B"/>
<path d="M438.089 517.597C437.568 517.597 437.066 517.31 436.819 516.814C436.469 516.116 436.755 515.269 437.456 514.921C443.174 512.088 447.082 503.245 448.753 489.347C450.049 478.577 449.511 468.561 449.505 468.461C449.462 467.683 450.059 467.017 450.841 466.973C451.619 466.929 452.291 467.525 452.335 468.303C452.341 468.405 452.893 478.635 451.572 489.646C450.791 496.161 449.515 501.689 447.78 506.077C445.535 511.756 442.486 515.582 438.719 517.449C438.516 517.55 438.301 517.597 438.089 517.597Z" fill="#317F8B"/>
<g opacity="0.35">
<g opacity="0.35">
<g opacity="0.35">
<g opacity="0.35">
<path opacity="0.35" d="M621.023 608.468V608.18C618.756 608.277 621.023 608.468 621.023 608.468Z" fill="#317F8B"/>
</g>
</g>
</g>
</g>
<path d="M592.413 573.786H456.239C456.239 573.786 457.069 550.379 465.125 516.812C468.353 503.35 472.747 488.253 478.714 472.376C480.147 468.564 481.674 464.707 483.294 460.813C487.821 449.949 493.102 438.824 499.26 427.698H549.393C554.483 436.897 558.974 446.091 562.935 455.147C565.498 461.003 567.839 466.797 569.974 472.488C579.293 497.297 584.765 520.196 587.968 537.922C591.917 559.789 592.413 573.786 592.413 573.786Z" fill="white"/>
<path d="M573.718 489.945C576.35 492.871 577.553 496.277 578.664 499.698C579.222 501.409 579.772 503.124 580.297 504.846C580.56 505.707 580.83 506.566 581.065 507.435C581.307 508.301 581.541 509.171 581.777 510.039L582.467 512.649C582.693 513.52 582.922 514.389 583.136 515.265L584.389 520.516C584.593 521.393 584.816 522.264 585.016 523.141L585.613 525.773L586.227 528.401C586.433 529.276 586.646 530.15 586.839 531.029L588.021 536.295C588.223 537.172 588.398 538.055 588.585 538.935L589.139 541.576L589.415 542.897L589.554 543.557L589.683 544.219L590.201 546.868C590.373 547.751 590.551 548.633 590.739 549.513C590.918 550.395 591.098 551.277 591.286 552.158C592.075 555.673 592.651 559.234 592.891 562.842C592.921 563.292 592.956 563.742 592.978 564.195L593.036 565.551C593.065 566.457 593.09 567.362 593.077 568.273C593.071 569.182 593.051 570.092 592.992 571.006C592.938 571.92 592.862 572.834 592.724 573.754C592.698 573.931 592.531 574.053 592.353 574.027C592.232 574.009 592.137 573.927 592.096 573.821L592.095 573.816C591.444 572.094 590.912 570.364 590.41 568.633C590.162 567.768 589.924 566.901 589.694 566.035L589.363 564.732C589.259 564.298 589.151 563.864 589.042 563.429C588.62 561.691 588.248 559.948 587.914 558.198C587.753 557.321 587.607 556.443 587.473 555.562C587.329 554.682 587.196 553.801 587.059 552.92C586.925 552.038 586.785 551.158 586.642 550.278C586.49 549.4 586.321 548.524 586.15 547.649L585.636 545.023L585.508 544.367L585.371 543.712L585.096 542.403L584.547 539.784C584.361 538.912 584.188 538.037 583.987 537.167L582.815 531.945C582.626 531.073 582.406 530.208 582.199 529.34L581.558 526.742L580.902 524.147C580.795 523.715 580.674 523.285 580.558 522.854L580.205 521.563L578.789 516.402C578.299 514.686 577.798 512.974 577.321 511.255C577.083 510.396 576.845 509.536 576.613 508.675L576.441 508.029L576.258 507.385L575.899 506.096C575.419 504.378 574.964 502.653 574.517 500.925L574.188 499.626C574.078 499.193 573.956 498.764 573.841 498.333C573.611 497.47 573.418 496.596 573.273 495.707C573.129 494.817 573.028 493.913 572.989 492.99C572.969 492.528 572.967 492.06 572.984 491.586C573.002 491.111 573.032 490.631 573.116 490.136L573.12 490.116C573.151 489.929 573.329 489.802 573.518 489.834C573.598 489.849 573.668 489.889 573.718 489.945Z" fill="#317F8B"/>
<path d="M455.92 573.775C455.71 573.31 455.566 572.848 455.431 572.384C455.296 571.919 455.195 571.459 455.106 570.996C454.924 570.07 454.827 569.149 454.772 568.231C454.747 567.772 454.73 567.313 454.731 566.856C454.733 566.398 454.751 565.943 454.772 565.488L454.849 564.122C454.873 563.667 454.902 563.212 454.939 562.758C455.081 560.942 455.219 559.124 455.432 557.317C455.529 556.411 455.636 555.507 455.743 554.603C455.795 554.151 455.865 553.702 455.927 553.25L456.118 551.898L456.519 549.197C456.659 548.298 456.822 547.404 456.976 546.507C457.289 544.715 457.583 542.92 457.941 541.137C458.287 539.351 458.605 537.561 458.96 535.779C459.321 533.998 459.672 532.215 460.019 530.43C460.107 529.984 460.187 529.537 460.283 529.093L460.569 527.76L461.139 525.095L461.71 522.43C461.758 522.207 461.803 521.985 461.854 521.763L462.01 521.1L462.323 519.773L463.574 514.466C463.675 514.024 463.788 513.583 463.9 513.143C464.009 512.701 464.12 512.261 464.225 511.819C464.436 510.935 464.644 510.05 464.845 509.164C465.05 508.278 465.251 507.391 465.463 506.506C465.667 505.62 465.923 504.748 466.18 503.875C466.442 503.004 466.719 502.138 467.011 501.275C467.303 500.413 467.614 499.556 467.928 498.701L468.413 497.423C468.495 497.21 468.586 497 468.674 496.789C468.764 496.579 468.85 496.368 468.943 496.158C469.309 495.318 469.68 494.483 470.075 493.655C470.465 492.825 470.872 492.001 471.299 491.186C471.727 490.371 472.17 489.561 472.662 488.768C472.756 488.615 472.957 488.568 473.11 488.663C473.215 488.727 473.27 488.841 473.264 488.957V488.961C473.06 492.688 472.36 496.234 471.668 499.78C471.49 500.664 471.308 501.547 471.109 502.426C470.908 503.303 470.693 504.176 470.464 505.045C469.985 506.777 469.504 508.509 469.003 510.237C468.753 511.101 468.509 511.966 468.267 512.832C468.145 513.265 468.03 513.699 467.913 514.133C467.799 514.568 467.681 515.002 467.583 515.441L466.346 520.691L466.037 522.004L465.883 522.66C465.832 522.879 465.787 523.099 465.74 523.318L465.175 525.956L464.61 528.593L464.328 529.912C464.234 530.351 464.154 530.794 464.067 531.234C462.618 538.281 461.644 545.412 460.697 552.528L460.33 555.196C460.215 556.086 460.101 556.976 459.976 557.864L459.246 563.199C459.113 564.087 459.006 564.976 458.886 565.865C458.824 566.309 458.758 566.754 458.675 567.197C458.594 567.639 458.513 568.082 458.413 568.524C458.215 569.407 457.969 570.288 457.677 571.167C457.532 571.606 457.359 572.046 457.181 572.485C456.998 572.923 456.8 573.363 456.555 573.8L456.553 573.805C456.457 573.974 456.243 574.035 456.073 573.94C456.001 573.9 455.95 573.841 455.92 573.775Z" fill="#317F8B"/>
<path d="M495.459 544.254C487.693 547.386 475.674 546.731 467.48 545.743C462.565 545.151 459.115 540.633 459.839 535.755C460.501 531.305 464.434 528.068 468.946 528.278C476.61 528.636 488.107 528.803 495.388 527.195" fill="white"/>
<g opacity="0.35">
<g opacity="0.35">
<g opacity="0.35">
<g opacity="0.35">
<path opacity="0.35" d="M495.462 544.253C487.693 547.389 475.673 546.727 467.48 545.746C462.565 545.153 459.116 540.633 459.84 535.759C459.984 534.764 460.298 533.83 460.744 532.977C462.038 535.438 464.488 537.252 467.48 537.613C475.659 538.601 487.658 539.257 495.428 536.141L495.462 544.253Z" fill="#317F8B"/>
</g>
</g>
</g>
</g>
<path d="M480.019 548.614C475.525 548.614 471.057 548.244 467.231 547.784C464.301 547.43 461.701 545.948 459.91 543.61C458.115 541.268 457.365 538.372 457.798 535.456C458.193 532.799 459.556 530.394 461.636 528.685C463.717 526.974 466.348 526.101 469.042 526.228C480.333 526.754 489.53 526.386 494.94 525.191C496.026 524.952 498.725 524.943 500.318 530.044C501.936 535.227 501.757 543.933 496.234 546.161C491.679 547.996 485.828 548.614 480.019 548.614ZM468.528 530.323C465.201 530.323 462.373 532.737 461.88 536.056C461.612 537.865 462.077 539.663 463.19 541.117C464.3 542.566 465.912 543.484 467.728 543.703C479.445 545.115 489.02 544.635 494.686 542.35C496.369 541.671 496.852 538.955 496.982 537.819C497.436 533.843 496.221 530.171 495.461 529.282C488.076 530.828 476.949 530.709 468.851 530.331C468.742 530.325 468.634 530.323 468.528 530.323Z" fill="#317F8B"/>
<path d="M554.865 544.254C562.631 547.386 574.651 546.731 582.845 545.743C587.759 545.151 591.21 540.633 590.485 535.755C589.824 531.305 585.89 528.068 581.379 528.278C573.714 528.636 562.217 528.803 554.937 527.195" fill="white"/>
<g opacity="0.35">
<g opacity="0.35">
<g opacity="0.35">
<g opacity="0.35">
<path opacity="0.35" d="M582.842 545.746C574.648 546.728 562.63 547.389 554.86 544.253L554.894 536.065C562.663 539.181 574.662 538.526 582.842 537.538C585.82 537.183 588.257 535.383 589.557 532.935C590.015 533.795 590.337 534.742 590.488 535.758C591.207 540.633 587.758 545.153 582.842 545.746Z" fill="#317F8B"/>
</g>
</g>
</g>
</g>
<path d="M570.306 548.614C564.497 548.614 558.647 547.996 554.091 546.16C548.567 543.932 548.388 535.226 550.006 530.043C551.598 524.943 554.298 524.951 555.385 525.19C560.796 526.386 569.993 526.754 581.282 526.227C583.979 526.101 586.607 526.974 588.689 528.684C590.769 530.393 592.132 532.798 592.526 535.455C592.96 538.371 592.209 541.267 590.415 543.609C588.623 545.947 586.023 547.429 583.093 547.783C579.267 548.243 574.799 548.614 570.306 548.614ZM554.865 529.282C554.104 530.171 552.89 533.843 553.344 537.819C553.473 538.955 553.956 541.671 555.64 542.35C561.306 544.635 570.881 545.116 582.598 543.703C584.413 543.484 586.026 542.566 587.136 541.117C588.249 539.663 588.714 537.866 588.445 536.056C587.937 532.631 584.942 530.171 581.476 530.331C573.375 530.709 562.249 530.827 554.865 529.282Z" fill="#317F8B"/>
<path d="M557.867 521.558V548.896C557.867 553.968 553.698 558.12 548.606 558.12H498.056C492.971 558.12 488.802 553.968 488.802 548.896V521.558C488.802 516.486 492.971 512.341 498.056 512.341H548.606C551.604 512.341 554.28 513.78 555.977 515.994C557.161 517.542 557.867 519.472 557.867 521.558Z" fill="white"/>
<g opacity="0.35">
<g opacity="0.35">
<g opacity="0.35">
<g opacity="0.35">
<path opacity="0.35" d="M557.865 521.558V548.896C557.865 553.968 553.699 558.118 548.606 558.118H498.058C492.966 558.118 488.8 553.968 488.8 548.896V538.67C496.391 546.38 511.322 551.219 525.015 551.291C529.415 551.315 532.964 547.849 533.278 543.477C533.281 543.433 533.285 543.389 533.288 543.346C533.625 539.511 536.796 536.405 540.652 536.128C545.042 535.813 548.749 539.043 549.183 543.241C555.811 535.091 553.87 520.926 555.978 515.994C557.163 517.544 557.865 519.471 557.865 521.558Z" fill="#317F8B"/>
</g>
</g>
</g>
</g>
<path d="M548.608 560.173H498.057C491.816 560.173 486.738 555.116 486.738 548.899V521.558C486.738 515.342 491.816 510.284 498.057 510.284H548.608C554.849 510.284 559.926 515.342 559.926 521.558V548.899C559.926 555.116 554.849 560.173 548.608 560.173ZM498.057 514.393C494.091 514.393 490.864 517.607 490.864 521.558V548.899C490.864 552.85 494.091 556.064 498.057 556.064H548.608C552.574 556.064 555.801 552.85 555.801 548.899V521.558C555.801 517.607 552.574 514.393 548.608 514.393H498.057Z" fill="#317F8B"/>
<path d="M541.24 543.179C545.649 543.179 549.223 539.619 549.223 535.228C549.223 530.837 545.649 527.277 541.24 527.277C536.832 527.277 533.257 530.837 533.257 535.228C533.257 539.619 536.832 543.179 541.24 543.179Z" fill="#22A7F0"/>
<g opacity="0.7">
<g opacity="0.7">
<g opacity="0.7">
<g opacity="0.7">
<path opacity="0.7" d="M549.223 535.228C549.223 535.772 549.171 536.301 549.068 536.817C548.331 533.182 545.106 530.446 541.242 530.446C537.374 530.446 534.149 533.182 533.412 536.817C533.308 536.301 533.256 535.774 533.256 535.228C533.256 530.835 536.832 527.279 541.242 527.279C545.647 527.279 549.223 530.835 549.223 535.228Z" fill="white"/>
</g>
</g>
</g>
</g>
<g opacity="0.35">
<g opacity="0.35">
<g opacity="0.35">
<g opacity="0.35">
<path opacity="0.35" d="M549.221 535.227C549.221 539.617 545.648 543.176 541.24 543.176C536.833 543.176 533.26 539.617 533.26 535.227C533.26 534.212 533.452 533.243 533.808 532.35C534.957 535.316 537.853 537.416 541.242 537.416C544.63 537.416 547.525 535.316 548.676 532.35C549.029 533.243 549.221 534.211 549.221 535.227Z" fill="#317F8B"/>
</g>
</g>
</g>
</g>
<path d="M541.241 544.72C535.986 544.72 531.711 540.462 531.711 535.228C531.711 529.994 535.986 525.737 541.241 525.737C546.495 525.737 550.77 529.994 550.77 535.228C550.77 540.462 546.495 544.72 541.241 544.72ZM541.241 528.819C537.693 528.819 534.806 531.694 534.806 535.228C534.806 538.762 537.693 541.637 541.241 541.637C544.789 541.637 547.676 538.762 547.676 535.228C547.676 531.694 544.789 528.819 541.241 528.819Z" fill="#317F8B"/>
<path d="M518.62 559.659C517.765 559.659 517.074 558.969 517.074 558.119V539.393L506.965 531.813V512.339C506.965 511.487 507.658 510.798 508.511 510.798C509.365 510.798 510.058 511.488 510.058 512.339V530.275L520.167 537.855V558.119C520.167 558.969 519.474 559.659 518.62 559.659Z" fill="#317F8B"/>
<path d="M524.324 572.838C533.266 572.838 541.865 569.534 548.581 563.653C557.884 555.508 573.544 545.794 590.83 552.025C597.766 554.523 602.492 559.107 605.717 564.179C614.022 545.013 631.444 543.865 638.984 554.727C638.984 554.727 626.309 614.956 622.178 616.296C616.26 618.216 602.041 616.197 602.041 616.197C602.041 616.197 552.572 609.527 524.324 609.527C496.075 609.527 446.607 616.197 446.607 616.197C446.607 616.197 432.387 618.215 426.469 616.296C422.338 614.956 409.663 554.727 409.663 554.727C417.203 543.863 434.626 545.013 442.931 564.179C446.154 559.106 450.882 554.523 457.818 552.025C475.103 545.794 490.764 555.508 500.067 563.653C506.783 569.532 515.382 572.838 524.324 572.838Z" fill="white"/>
<g opacity="0.35">
<path d="M638.986 554.725C638.986 554.725 626.31 614.956 622.179 616.296C616.263 618.217 602.04 616.199 602.04 616.199C602.04 616.199 552.574 609.527 524.323 609.527C496.078 609.527 446.606 616.199 446.606 616.199C446.606 616.199 432.388 618.217 426.473 616.296C422.342 614.956 409.666 554.725 409.666 554.725C410.909 552.937 412.415 551.473 414.107 550.364C418.171 568.024 423.935 591.081 426.473 591.904C432.389 593.819 446.606 591.801 446.606 591.801C446.606 591.801 496.078 578.456 524.323 578.456C552.574 578.456 602.04 591.801 602.04 591.801C602.04 591.801 616.263 593.819 622.179 591.904C624.716 591.081 630.481 568.024 634.545 550.364C636.237 551.474 637.743 552.938 638.986 554.725Z" fill="#317F8B"/>
</g>
<path d="M434.096 619.173C430.994 619.173 427.963 618.941 425.831 618.25C424.377 617.778 423.155 616.173 420.861 609.056C419.518 604.889 417.907 599.088 416.073 591.812C412.771 578.713 409.553 564.022 408.323 558.314C407.679 555.326 408.662 552.235 410.89 550.249C415.167 546.435 420.9 544.967 426.618 546.221C430.221 547.011 433.727 548.885 436.757 551.639C439.267 553.922 441.448 556.773 443.267 560.144C446.958 555.452 451.605 552.079 457.118 550.092C463.365 547.84 469.901 547.393 476.546 548.763C481.91 549.87 487.366 552.163 492.759 555.583C493.72 556.193 494.002 557.463 493.391 558.42C492.78 559.378 491.504 559.659 490.543 559.051C479.443 552.012 468.669 550.299 458.522 553.957C452.799 556.019 448.14 559.828 444.675 565.279C444.266 565.923 443.531 566.288 442.77 566.229C442.008 566.169 441.342 565.695 441.038 564.995C437.568 556.986 431.989 551.607 425.731 550.236C421.325 549.27 416.918 550.391 413.642 553.313C412.515 554.317 412.023 555.904 412.357 557.455C413.519 562.842 416.562 576.743 419.733 589.443C421.475 596.423 423.02 602.103 424.324 606.322C426.149 612.229 427.103 613.962 427.442 614.445C432.103 615.746 442.585 614.696 446.317 614.166C446.322 614.165 446.326 614.165 446.331 614.164C446.827 614.097 496.262 607.475 524.325 607.475C552.388 607.475 601.823 614.097 602.319 614.164C602.323 614.165 602.329 614.165 602.333 614.166C606.067 614.696 616.548 615.746 621.209 614.445C621.542 613.971 622.47 612.288 624.234 606.622C625.507 602.536 627.014 597.029 628.715 590.255C631.747 578.176 634.654 565.033 636.116 558.275C636.596 556.06 635.763 553.79 633.994 552.491C630.618 550.012 626.434 549.272 622.214 550.408C616.168 552.036 610.983 557.216 607.613 564.996C607.31 565.695 606.643 566.17 605.88 566.23C605.117 566.29 604.385 565.924 603.975 565.28C600.511 559.83 595.853 556.02 590.13 553.958C579.893 550.268 569.028 552.041 557.832 559.228C556.874 559.842 555.599 559.568 554.981 558.613C554.364 557.66 554.639 556.389 555.597 555.773C561.023 552.29 566.514 549.945 571.916 548.803C578.626 547.385 585.227 547.82 591.534 550.093C597.047 552.08 601.694 555.455 605.386 560.146C609.26 552.972 614.765 548.156 621.138 546.441C626.519 544.992 632.097 545.991 636.443 549.183C639.516 551.44 640.971 555.347 640.151 559.14C638.602 566.3 635.531 580.173 632.372 592.626C630.582 599.689 629.008 605.315 627.696 609.348C625.457 616.23 624.256 617.787 622.819 618.253C616.546 620.288 602.477 618.337 601.761 618.236C600.985 618.132 552.029 611.585 524.326 611.585C496.618 611.585 447.667 618.132 446.891 618.236C446.415 618.3 440.123 619.173 434.096 619.173Z" fill="#317F8B"/>
<path d="M618.505 616.296H622.179C626.492 616.296 630.403 613.777 632.16 609.853C637.659 597.587 647.687 570.634 638.294 554.186C638.021 553.706 637.729 553.244 637.419 552.802C637.419 552.802 628.402 544.633 621.924 556.189C615.873 566.985 603.172 613.144 618.505 616.296Z" fill="#AFAFB2"/>
<g opacity="0.7">
<g opacity="0.7">
<g opacity="0.7">
<g opacity="0.7">
<path opacity="0.7" d="M618.606 563.883C618.768 563.625 618.931 563.381 619.088 563.154C627.053 551.598 638.142 559.766 638.142 559.766C638.521 560.209 638.883 560.671 639.217 561.151C640.329 562.735 641.218 564.414 641.913 566.172C641.464 561.852 640.343 557.769 638.295 554.187C638.021 553.707 637.729 553.245 637.419 552.803C637.419 552.803 628.402 544.634 621.924 556.19C620.941 557.939 619.788 560.611 618.606 563.883Z" fill="white"/>
</g>
</g>
</g>
</g>
<path d="M641.864 567.405C641.771 567.405 641.677 567.397 641.582 567.381L619.044 563.634C618.117 563.48 617.492 562.607 617.646 561.683C617.8 560.76 618.678 560.137 619.603 560.291L642.141 564.038C643.067 564.192 643.693 565.065 643.539 565.989C643.401 566.819 642.681 567.405 641.864 567.405Z" fill="#317F8B"/>
<path d="M641.721 579.533C641.645 579.533 641.569 579.529 641.492 579.517L615.127 575.987C614.196 575.863 613.543 575.01 613.667 574.083C613.792 573.155 614.648 572.505 615.58 572.629L641.945 576.16C642.876 576.284 643.529 577.137 643.404 578.064C643.29 578.915 642.56 579.533 641.721 579.533Z" fill="#317F8B"/>
<path d="M639.395 591.412C639.326 591.412 639.257 591.408 639.187 591.4L612.423 588.137C611.491 588.023 610.827 587.178 610.941 586.25C611.055 585.322 611.902 584.66 612.835 584.774L639.6 588.037C640.532 588.151 641.195 588.995 641.082 589.924C640.976 590.783 640.242 591.412 639.395 591.412Z" fill="#317F8B"/>
<path d="M635.151 604.368C635.1 604.368 635.048 604.365 634.996 604.361L611.068 602.21C610.132 602.127 609.443 601.302 609.527 600.371C609.61 599.439 610.438 598.751 611.374 598.836L635.302 600.986C636.237 601.07 636.928 601.894 636.843 602.826C636.763 603.706 636.021 604.368 635.151 604.368Z" fill="#317F8B"/>
<g opacity="0.35">
<g opacity="0.35">
<g opacity="0.35">
<g opacity="0.35">
<path opacity="0.35" d="M618.504 616.296H622.178C626.491 616.296 630.402 613.777 632.159 609.853C633.58 606.674 635.31 602.515 636.927 597.803C634.721 601.449 630.24 603.761 625.32 603.761H620.941C614.709 602.686 612.364 596.598 612.271 588.619C610.164 602.087 610.742 614.7 618.504 616.296Z" fill="#317F8B"/>
</g>
</g>
</g>
</g>
<path d="M622.179 617.991H618.505C618.39 617.991 618.275 617.979 618.162 617.956C615.192 617.345 612.948 615.427 611.491 612.254C608.056 604.775 609.725 591.746 611.731 582.132C614.183 570.384 617.968 559.772 620.44 555.363C622.712 551.309 625.575 548.974 628.948 548.426C634.121 547.586 638.385 551.386 638.564 551.548C638.658 551.633 638.742 551.729 638.815 551.831C639.154 552.315 639.477 552.826 639.775 553.349C644.068 560.867 644.979 571.15 642.483 583.911C640.453 594.286 636.595 604.12 633.715 610.543C631.688 615.068 627.162 617.991 622.179 617.991ZM618.69 614.602H622.179C625.819 614.602 629.128 612.468 630.607 609.164C633.414 602.902 637.174 593.324 639.143 583.265C641.48 571.321 640.696 561.82 636.817 555.024C636.606 554.654 636.38 554.292 636.146 553.947C635.508 553.428 632.614 551.253 629.476 551.774C627.188 552.154 625.147 553.917 623.411 557.015C621.122 561.097 617.419 571.529 615.063 582.822C612.374 595.71 612.204 605.662 614.585 610.846C615.551 612.95 616.895 614.181 618.69 614.602Z" fill="#317F8B"/>
<path d="M430.145 616.296H426.471C422.158 616.296 418.247 613.777 416.491 609.853C410.991 597.587 400.964 570.634 410.356 554.186C410.629 553.706 410.922 553.244 411.231 552.802C411.231 552.802 420.248 544.633 426.727 556.189C432.777 566.985 445.477 613.144 430.145 616.296Z" fill="#AFAFB2"/>
<g opacity="0.7">
<g opacity="0.7">
<g opacity="0.7">
<g opacity="0.7">
<path opacity="0.7" d="M430.042 563.883C429.88 563.625 429.718 563.381 429.561 563.154C421.596 551.598 410.507 559.766 410.507 559.766C410.127 560.209 409.766 560.671 409.432 561.151C408.32 562.735 407.431 564.414 406.736 566.172C407.185 561.852 408.306 557.769 410.354 554.187C410.627 553.707 410.92 553.245 411.229 552.803C411.229 552.803 420.246 544.634 426.725 556.19C427.707 557.939 428.861 560.611 430.042 563.883Z" fill="white"/>
</g>
</g>
</g>
</g>
<path d="M406.785 567.405C405.968 567.405 405.248 566.817 405.109 565.99C404.955 565.067 405.58 564.194 406.507 564.039L429.045 560.292C429.971 560.138 430.848 560.76 431.002 561.684C431.156 562.607 430.532 563.48 429.604 563.635L407.066 567.382C406.972 567.398 406.878 567.405 406.785 567.405Z" fill="#317F8B"/>
<path d="M406.927 579.533C406.088 579.533 405.358 578.915 405.244 578.065C405.119 577.138 405.772 576.285 406.703 576.161L433.069 572.629C434.001 572.504 434.856 573.155 434.982 574.083C435.107 575.01 434.454 575.863 433.523 575.987L407.156 579.519C407.079 579.529 407.003 579.533 406.927 579.533Z" fill="#317F8B"/>
<path d="M409.254 591.412C408.407 591.412 407.673 590.783 407.568 589.924C407.453 588.995 408.117 588.151 409.05 588.036L435.814 584.774C436.746 584.661 437.594 585.32 437.709 586.25C437.823 587.178 437.16 588.023 436.227 588.137L409.463 591.4C409.392 591.409 409.322 591.412 409.254 591.412Z" fill="#317F8B"/>
<path d="M413.499 604.367C412.628 604.367 411.886 603.706 411.807 602.826C411.723 601.894 412.413 601.071 413.348 600.986L437.276 598.836C438.213 598.752 439.038 599.439 439.123 600.371C439.207 601.302 438.518 602.126 437.582 602.21L413.654 604.361C413.602 604.365 413.55 604.367 413.499 604.367Z" fill="#317F8B"/>
<g opacity="0.35">
<g opacity="0.35">
<g opacity="0.35">
<g opacity="0.35">
<path opacity="0.35" d="M430.144 616.296H426.47C422.157 616.296 418.246 613.777 416.49 609.853C415.068 606.674 413.338 602.515 411.721 597.803C413.927 601.449 418.408 603.761 423.328 603.761H427.708C433.94 602.686 436.285 596.598 436.378 588.619C438.484 602.087 437.905 614.7 430.144 616.296Z" fill="#317F8B"/>
</g>
</g>
</g>
</g>
<path d="M430.145 617.99H426.471C421.489 617.99 416.962 615.068 414.936 610.543C412.057 604.121 408.197 594.287 406.168 583.912C403.672 571.151 404.582 560.868 408.876 553.349C409.174 552.826 409.497 552.316 409.835 551.832C409.907 551.729 409.991 551.634 410.085 551.549C410.265 551.386 414.529 547.587 419.702 548.427C423.075 548.975 425.938 551.31 428.21 555.364C430.682 559.773 434.467 570.385 436.919 582.133C438.925 591.747 440.594 604.776 437.159 612.255C435.702 615.428 433.458 617.346 430.488 617.957C430.375 617.979 430.259 617.99 430.145 617.99ZM412.503 553.948C412.268 554.292 412.044 554.654 411.833 555.023C407.952 561.82 407.169 571.32 409.506 583.265C411.474 593.325 415.233 602.902 418.042 609.164C419.522 612.469 422.83 614.603 426.47 614.603H429.959C431.754 614.182 433.098 612.951 434.065 610.846C436.445 605.662 436.276 595.71 433.587 582.822C431.231 571.529 427.527 561.097 425.239 557.015C423.503 553.917 421.462 552.154 419.174 551.774C416.042 551.254 413.148 553.423 412.503 553.948Z" fill="#317F8B"/>
<path d="M471.616 614.75C471.375 614.75 471.13 614.694 470.901 614.574C470.143 614.18 469.851 613.248 470.248 612.494C476.708 600.2 476.803 586.374 470.531 571.402C465.8 560.109 459.026 552.382 458.958 552.305C458.393 551.667 458.455 550.693 459.095 550.13C459.736 549.567 460.713 549.627 461.278 550.265C461.567 550.591 468.415 558.389 473.35 570.128C476.262 577.054 477.886 583.909 478.178 590.501C478.546 598.79 476.799 606.669 472.988 613.922C472.712 614.45 472.173 614.75 471.616 614.75Z" fill="#317F8B"/>
<path d="M577.66 614.75C577.102 614.75 576.565 614.45 576.288 613.923C572.477 606.67 570.731 598.791 571.098 590.502C571.391 583.91 573.015 577.055 575.926 570.129C580.861 558.39 587.709 550.591 587.998 550.266C588.564 549.628 589.542 549.567 590.182 550.131C590.823 550.693 590.884 551.667 590.318 552.305C590.25 552.381 583.476 560.109 578.745 571.402C572.474 586.375 572.569 600.2 579.029 612.494C579.425 613.248 579.132 614.179 578.376 614.574C578.147 614.694 577.902 614.75 577.66 614.75Z" fill="#317F8B"/>
<g opacity="0.35">
<path d="M575.589 466.711C573.805 468.745 571.928 470.676 569.973 472.49C565.332 476.794 560.246 480.457 554.806 483.359C545.615 488.27 535.42 491.023 524.683 491.074C514.193 491.12 504.209 488.583 495.159 483.97C489.233 480.945 483.709 477.036 478.712 472.377C476.227 470.055 473.869 467.553 471.657 464.888C475.664 463.656 479.646 462.227 483.291 460.814C487.819 449.951 493.1 438.825 499.258 427.699H549.39C554.48 436.898 558.972 446.092 562.932 455.148C566.708 457.341 571.056 461.472 575.589 466.711Z" fill="#317F8B"/>
</g>
<path d="M600.879 417.106C600.006 417.2 599.222 416.571 599.128 415.702L594.235 370.352C594.141 369.482 594.773 368.702 595.646 368.608C604.805 367.628 613.027 374.228 614.011 383.35L615.681 398.815C616.666 407.937 610.038 416.126 600.879 417.106Z" fill="white"/>
<path d="M600.706 417.506C600.256 417.506 599.821 417.355 599.466 417.069C599.054 416.738 598.796 416.267 598.74 415.743L593.847 370.393C593.79 369.869 593.942 369.354 594.274 368.944C594.606 368.534 595.079 368.277 595.605 368.22C604.966 367.219 613.397 373.987 614.403 383.309L616.071 398.774C616.558 403.289 615.251 407.723 612.389 411.26C609.528 414.796 605.455 417.011 600.921 417.496L600.879 417.108L600.921 417.496C600.85 417.503 600.777 417.506 600.706 417.506ZM597.441 368.902C596.862 368.902 596.278 368.932 595.689 368.995C595.371 369.029 595.085 369.185 594.884 369.432C594.684 369.681 594.592 369.991 594.626 370.309L599.519 415.659C599.553 415.976 599.709 416.261 599.959 416.461C600.208 416.66 600.52 416.752 600.839 416.718C605.164 416.255 609.049 414.142 611.78 410.768C614.51 407.395 615.758 403.164 615.293 398.855L613.625 383.391C612.727 375.084 605.649 368.902 597.441 368.902Z" fill="#317F8B"/>
<g opacity="0.35">
<g opacity="0.35">
<g opacity="0.35">
<g opacity="0.35">
<path opacity="0.35" d="M614.899 391.563L615.683 398.816C616.666 407.935 610.04 416.126 600.88 417.11C600.007 417.205 599.223 416.57 599.129 415.701L597.824 403.646C598.128 404.169 598.722 404.49 599.363 404.427L600.442 404.308C607.679 403.534 613.339 398.255 614.899 391.563Z" fill="#317F8B"/>
</g>
</g>
</g>
</g>
<path d="M600.704 419.29C599.846 419.29 599.021 419.001 598.344 418.457C597.559 417.828 597.068 416.932 596.96 415.934L592.067 370.584C591.96 369.587 592.249 368.607 592.881 367.825C593.512 367.044 594.412 366.555 595.414 366.447C605.753 365.341 615.07 372.819 616.182 383.118L617.85 398.583C618.388 403.572 616.944 408.471 613.782 412.379C610.621 416.285 606.121 418.733 601.112 419.268C600.977 419.282 600.84 419.29 600.704 419.29ZM600.649 414.946H600.648C600.648 414.946 600.648 414.946 600.649 414.946ZM596.472 370.718L601.235 414.873C604.849 414.34 608.081 412.501 610.387 409.651C612.817 406.648 613.927 402.883 613.514 399.047L611.846 383.583C611.012 375.862 604.181 370.203 596.472 370.718Z" fill="#317F8B"/>
<path d="M445.356 384.694C446.23 384.6 447.013 385.229 447.107 386.099L452 431.449C452.094 432.318 451.463 433.099 450.59 433.193C441.431 434.173 433.209 427.573 432.224 418.45L430.556 402.986C429.57 393.863 436.198 385.674 445.356 384.694Z" fill="white"/>
<path d="M448.794 433.679C440.192 433.68 432.772 427.2 431.833 418.492L430.165 403.027C429.16 393.705 435.955 385.307 445.315 384.305L445.357 384.694L445.315 384.305C446.4 384.189 447.38 384.975 447.496 386.057L452.389 431.407C452.506 432.489 451.717 433.464 450.631 433.58C450.015 433.647 449.4 433.679 448.794 433.679ZM445.527 385.074C445.484 385.074 445.442 385.077 445.398 385.081C436.468 386.037 429.984 394.05 430.944 402.944L432.612 418.409C433.572 427.303 441.616 433.761 450.547 432.805C451.203 432.735 451.681 432.146 451.61 431.492L446.717 386.142C446.652 385.53 446.13 385.074 445.527 385.074Z" fill="#317F8B"/>
<g opacity="0.35">
<g opacity="0.35">
<g opacity="0.35">
<g opacity="0.35">
<path opacity="0.35" d="M450.647 418.867L452.004 431.449C452.099 432.318 451.462 433.099 450.59 433.193C445.782 433.705 441.228 432.132 437.846 429.198C434.793 426.548 432.695 422.783 432.227 418.453L431.524 411.936C434.741 417.375 440.962 420.738 447.678 420.02L449.339 419.842C449.944 419.776 450.424 419.387 450.647 418.867Z" fill="#317F8B"/>
</g>
</g>
</g>
</g>
<path d="M448.793 435.461C439.288 435.463 431.092 428.303 430.055 418.682L428.387 403.217C427.275 392.918 434.784 383.639 445.124 382.532C447.19 382.311 449.055 383.806 449.277 385.865L454.17 431.216C454.392 433.276 452.891 435.131 450.822 435.352C450.141 435.426 449.463 435.461 448.793 435.461ZM445.002 386.929C437.359 388.058 431.891 395.033 432.724 402.754L434.392 418.219C435.225 425.939 442.056 431.598 449.766 431.084L445.002 386.929Z" fill="#317F8B"/>
<path d="M523.126 478.625C566.225 478.625 601.163 443.826 601.163 400.9C601.163 357.973 566.225 323.174 523.126 323.174C480.028 323.174 445.089 357.973 445.089 400.9C445.089 443.826 480.028 478.625 523.126 478.625Z" fill="white"/>
<path d="M523.051 479.017C513.483 479.017 504.136 477.308 495.224 473.925C485.748 470.329 477.163 465.001 469.705 458.091C462.247 451.18 456.294 443.035 452.009 433.881C447.573 424.403 445.131 414.255 444.748 403.716C444.366 393.178 446.068 382.88 449.807 373.108C453.417 363.67 458.767 355.119 465.704 347.691C472.642 340.263 480.822 334.333 490.014 330.065C499.53 325.647 509.719 323.214 520.3 322.833C530.88 322.453 541.22 324.148 551.03 327.872C560.506 331.468 569.091 336.796 576.549 343.706C584.007 350.616 589.96 358.762 594.245 367.915C598.681 377.393 601.124 387.542 601.506 398.081C601.888 408.619 600.186 418.917 596.447 428.688C592.837 438.127 587.487 446.677 580.549 454.106C573.61 461.534 565.432 467.463 556.242 471.731C546.726 476.149 536.536 478.582 525.956 478.962C524.984 478.999 524.016 479.017 523.051 479.017ZM523.163 323.563C522.219 323.563 521.278 323.58 520.327 323.614C477.542 325.152 443.989 361.072 445.532 403.687C446.279 424.33 455.054 443.449 470.238 457.519C484.719 470.938 503.38 478.234 523.056 478.235C524.011 478.235 524.966 478.218 525.925 478.183C546.651 477.439 565.846 468.7 579.973 453.576C594.099 438.452 601.467 418.754 600.72 398.111C599.212 356.443 564.693 323.563 523.163 323.563Z" fill="#317F8B"/>
<g opacity="0.35">
<g opacity="0.35">
<g opacity="0.35">
<g opacity="0.35">
<path opacity="0.35" d="M599.977 387.372C600.6 390.866 600.983 394.446 601.115 398.098C602.663 440.996 569.009 477.026 525.939 478.576C482.869 480.118 446.695 446.599 445.138 403.702C445.093 402.468 445.077 401.233 445.091 400.014C451.718 437.637 485.347 465.578 524.754 464.163C566.586 462.657 599.53 428.63 599.977 387.372Z" fill="#317F8B"/>
</g>
</g>
</g>
</g>
<path d="M523.05 480.799C513.263 480.799 503.703 479.051 494.588 475.591C484.896 471.913 476.114 466.463 468.487 459.396C460.86 452.328 454.771 443.996 450.388 434.634C445.85 424.939 443.352 414.557 442.962 403.78C442.572 393.002 444.313 382.468 448.137 372.473C451.831 362.82 457.302 354.072 464.398 346.476C471.494 338.88 479.857 332.814 489.258 328.45C498.992 323.93 509.415 321.442 520.236 321.053C531.058 320.665 541.633 322.398 551.668 326.208C561.36 329.886 570.142 335.336 577.769 342.403C585.396 349.471 591.485 357.803 595.868 367.166C600.406 376.86 602.904 387.242 603.294 398.02C603.684 408.797 601.943 419.331 598.119 429.327C594.425 438.979 588.954 447.727 581.858 455.323C574.762 462.919 566.397 468.984 556.997 473.349C547.263 477.869 536.84 480.357 526.019 480.746C525.028 480.781 524.037 480.799 523.05 480.799ZM523.164 325.346C522.242 325.346 521.322 325.363 520.394 325.396C478.594 326.898 445.814 361.991 447.322 403.624C448.052 423.791 456.625 442.468 471.459 456.215C485.607 469.325 503.837 476.454 523.061 476.454C523.993 476.454 524.927 476.437 525.864 476.403C546.112 475.676 564.864 467.138 578.666 452.363C592.468 437.588 599.666 418.344 598.935 398.177C597.46 357.467 563.736 325.346 523.164 325.346Z" fill="#317F8B"/>
<path d="M600.937 400.101C601.719 415.29 597.493 429.646 589.627 441.745C583.729 450.817 558.423 467.457 526.217 469.389C496.355 471.18 468.358 456.701 461.561 448.278C452.494 437.041 446.819 423.192 446.037 408.002C443.97 367.806 477.787 349.373 520.565 347.191C563.34 345.009 598.87 359.905 600.937 400.101Z" fill="#17A2B8"/>
<path d="M521.034 471.036C506.185 471.036 493.271 467.35 484.699 464.057C473.843 459.887 464.301 454.06 460.391 449.213C450.792 437.318 445.31 423.093 444.538 408.078C444.026 398.115 445.676 389.074 449.439 381.206C452.983 373.802 458.417 367.387 465.595 362.138C478.708 352.547 497.689 346.862 520.485 345.7C543.283 344.538 562.747 348.261 576.775 356.467C584.452 360.958 590.518 366.787 594.802 373.793C599.353 381.236 601.922 390.062 602.433 400.025C603.205 415.041 599.21 429.748 590.883 442.557C587.423 447.879 578.829 454.403 568.457 459.58C559.346 464.128 544.637 469.781 526.306 470.879C524.525 470.986 522.766 471.036 521.034 471.036ZM528.535 348.477C525.953 348.477 523.322 348.545 520.639 348.682C498.429 349.815 480.01 355.3 467.37 364.544C453.258 374.866 446.584 389.462 447.533 407.926C448.272 422.31 453.527 435.94 462.728 447.343C465.465 450.735 473.144 456.419 485.778 461.272C495.073 464.842 509.617 468.889 526.127 467.899C543.951 466.829 558.255 461.333 567.116 456.91C578.989 450.983 585.985 444.599 588.369 440.935C596.352 428.656 600.181 414.562 599.442 400.178C598.493 381.715 590.356 367.874 575.259 359.042C563.369 352.087 547.33 348.477 528.535 348.477Z" fill="#317F8B"/>
<g opacity="0.5">
<g opacity="0.5">
<g opacity="0.5">
<g opacity="0.5">
<path d="M585.401 397.196C586.375 389.661 582.721 382.984 577.24 382.281C571.759 381.578 566.526 387.116 565.552 394.65C564.578 402.185 568.232 408.862 573.713 409.565C579.194 410.268 584.427 404.73 585.401 397.196Z" fill="white"/>
</g>
</g>
</g>
</g>
<g opacity="0.5">
<g opacity="0.5">
<g opacity="0.5">
<g opacity="0.5">
<path d="M569.89 425.201C570.813 421.838 569.212 418.472 566.314 417.683C563.416 416.894 560.319 418.981 559.396 422.345C558.473 425.708 560.074 429.074 562.972 429.863C565.87 430.651 568.967 428.564 569.89 425.201Z" fill="white"/>
</g>
</g>
</g>
</g>
<g opacity="0.35">
<path d="M583.946 363.37C593.877 371.885 600.104 383.955 600.937 400.099C601.718 415.292 597.49 429.646 589.629 441.746C583.729 450.817 558.421 467.456 526.215 469.392C514.844 470.078 503.747 468.399 493.981 465.591C533.518 462.372 564.337 441.96 571.651 430.709C581.636 415.353 586.999 397.131 586.004 377.857C585.743 372.704 585.037 367.881 583.946 363.37Z" fill="#317F8B"/>
</g>
<path d="M450.107 375.519C449.667 375.519 449.225 375.382 448.846 375.098C447.955 374.43 447.749 373.191 448.356 372.277C451.595 366.978 455.73 362.135 460.647 357.884C465.434 353.746 471.002 350.133 477.194 347.146C483.257 344.222 489.959 341.879 497.112 340.183C504.2 338.503 511.766 337.448 519.604 337.048C527.313 336.655 534.866 336.92 542.054 337.835C549.307 338.759 556.204 340.348 562.551 342.556C569.045 344.816 574.986 347.734 580.211 351.23C585.583 354.823 590.229 359.05 594.023 363.792C594.685 364.523 594.753 365.642 594.133 366.455C593.432 367.375 592.115 367.553 591.192 366.855L590.972 366.692L590.807 366.482C576.759 348.846 550.884 339.639 519.818 341.223C488.581 342.817 463.83 354.947 451.91 374.502L451.855 374.591L451.784 374.685C451.373 375.231 450.744 375.519 450.107 375.519Z" fill="#317F8B"/>
<g opacity="0.5">
<g opacity="0.5">
<g opacity="0.5">
<g opacity="0.5">
<path d="M464.66 431.028C464.66 431.028 450.122 392.011 470.766 375.114C491.41 358.217 522.284 356.707 521.663 358.716C521.663 358.716 487.912 368.699 475.923 396.291C466.678 417.567 464.66 431.028 464.66 431.028Z" fill="white"/>
</g>
</g>
</g>
</g>
<path d="M593.85 620.769H455.447C450.966 620.769 447.333 617.15 447.333 612.687C447.333 610.115 449.426 608.03 452.008 608.03H597.289C599.871 608.03 601.964 610.115 601.964 612.687C601.964 617.151 598.331 620.769 593.85 620.769Z" fill="#E6E9FA"/>
<g opacity="0.3">
<g opacity="0.3">
<g opacity="0.3">
<g opacity="0.3">
<path opacity="0.3" d="M601.962 612.688C601.962 613.571 601.818 614.419 601.555 615.215C600.828 613.587 599.193 612.457 597.29 612.457H452.009C450.72 612.457 449.55 612.976 448.704 613.824C448.301 614.225 447.971 614.692 447.74 615.216C447.477 614.42 447.333 613.573 447.333 612.689C447.333 611.405 447.853 610.239 448.705 609.397C449.551 608.55 450.721 608.03 452.01 608.03H597.29C599.873 608.029 601.962 610.114 601.962 612.688Z" fill="white"/>
</g>
</g>
</g>
</g>
<g opacity="0.35">
<g opacity="0.35">
<g opacity="0.35">
<g opacity="0.35">
<path opacity="0.35" d="M601.962 612.688C601.962 614.917 601.055 616.941 599.584 618.399C598.119 619.863 596.087 620.768 593.85 620.768H455.449C450.968 620.768 447.332 617.151 447.332 612.688C447.332 611.829 447.564 611.023 447.976 610.33C449.203 613.222 452.091 615.256 455.448 615.256H593.849C596.087 615.256 598.119 614.353 599.583 612.888C600.315 612.158 600.908 611.291 601.316 610.33C601.731 611.023 601.962 611.829 601.962 612.688Z" fill="#317F8B"/>
</g>
</g>
</g>
</g>
<path d="M593.851 622.824H455.448C449.836 622.824 445.271 618.277 445.271 612.688C445.271 608.988 448.294 605.977 452.009 605.977H597.29C601.005 605.977 604.028 608.988 604.028 612.688C604.028 618.276 599.462 622.824 593.851 622.824ZM452.008 610.086C450.568 610.086 449.395 611.252 449.395 612.688C449.395 616.012 452.11 618.715 455.447 618.715H593.851C597.188 618.715 599.902 616.012 599.902 612.688C599.902 611.254 598.731 610.086 597.29 610.086H452.008Z" fill="#317F8B"/>
<path d="M610.043 517.04L596.506 608.028H452.794L452.304 604.736L439.25 517.04C438.823 514.159 441.065 511.575 443.984 511.575H605.308C608.233 511.575 610.471 514.159 610.043 517.04Z" fill="#FF66AC"/>
<path d="M610.043 517.04L596.506 608.028H452.794L452.304 604.736L439.25 517.04C438.823 514.159 441.065 511.575 443.984 511.575H605.308C608.233 511.575 610.471 514.159 610.043 517.04Z" fill="#E6E9FA"/>
<g opacity="0.5">
<g opacity="0.5">
<g opacity="0.5">
<g opacity="0.5">
<path opacity="0.5" d="M444.353 522.688C443.926 519.807 446.169 517.223 449.087 517.223H610.017L610.044 517.041C610.471 514.16 608.234 511.576 605.31 511.576H443.986C441.067 511.576 438.824 514.16 439.252 517.041L452.304 604.737L452.794 608.029H457.057L444.353 522.688Z" fill="white"/>
</g>
</g>
</g>
</g>
<g opacity="0.35">
<g opacity="0.35">
<g opacity="0.35">
<g opacity="0.35">
<path opacity="0.35" d="M600.773 511.575H589.446C593.741 527.249 591.371 562.642 563.66 581.139C528.873 604.359 466.181 604.212 452.871 604.736L453.361 608.028H591.971L605.508 517.04C605.935 514.159 603.698 511.575 600.773 511.575Z" fill="#317F8B"/>
</g>
</g>
</g>
</g>
<path d="M598.284 610.086H451.014L437.213 517.341C436.92 515.377 437.5 513.389 438.802 511.886C440.103 510.382 441.994 509.521 443.986 509.521H605.312C607.305 509.521 609.195 510.382 610.496 511.886C611.798 513.389 612.378 515.377 612.085 517.341L598.284 610.086ZM454.573 605.976H594.725L608.004 516.738C608.122 515.946 607.897 515.176 607.372 514.569C606.847 513.963 606.116 513.629 605.312 513.629H443.986C443.182 513.629 442.451 513.964 441.926 514.569C441.401 515.176 441.176 515.946 441.294 516.738L454.573 605.976Z" fill="#317F8B"/>
<g opacity="0.3">
<g opacity="0.3">
<g opacity="0.3">
<g opacity="0.3">
<path opacity="0.3" d="M464.233 586.77C458.781 574.801 454.812 554.369 455.706 542.345C456.601 530.32 463.603 533.999 465.773 549.402C471.548 590.395 466.667 592.115 464.233 586.77Z" fill="white"/>
</g>
</g>
</g>
</g>
<path d="M543.425 549.479C543.601 547.943 543.805 546.39 543.502 544.828C543.367 544.658 543.243 544.485 543.108 544.315C542.662 544.155 542.227 543.946 541.762 543.83C538.492 542.988 535.177 542.655 531.809 542.944C527.417 543.321 523.386 544.671 519.92 547.452C518.664 548.454 517.52 549.587 516.349 550.686C516.035 550.984 515.793 551.109 515.352 550.907C514.315 550.438 513.197 550.228 512.061 550.171C509.017 550.033 506.3 551.014 503.766 552.598C501.019 554.322 498.806 556.625 496.744 559.09C495.867 560.135 496.208 561.299 497.514 561.738C498.339 562.006 499.163 562.269 499.987 562.538C501.963 563.175 503.933 563.806 505.903 564.442C505.899 564.503 505.904 564.535 505.895 564.565C505.879 564.604 505.862 564.648 505.835 564.685C505.013 565.738 505.213 566.711 506.079 567.626C506.172 567.728 506.252 567.848 506.334 567.958C506.788 568.552 507.251 569.153 507.732 569.772C507.076 570.277 506.43 570.706 505.86 571.224C505.572 571.485 505.318 571.865 505.209 572.241C505.024 572.847 505.34 573.467 505.882 573.786C506.456 574.13 507.048 574.116 507.584 573.732C508.263 573.25 508.911 572.729 509.602 572.203C510.254 573.06 510.872 573.869 511.492 574.669C512.203 575.58 512.693 575.736 513.795 575.432C513.996 575.37 514.194 575.327 514.431 575.27C514.447 575.505 514.465 575.693 514.476 575.87C514.616 578.707 514.745 581.548 514.902 584.377C514.973 585.719 516.037 586.353 517.254 585.778C518.352 585.262 519.45 584.715 520.527 584.133C523.01 582.788 525.268 581.142 527.07 578.952C529.326 576.196 530.574 573.118 529.99 569.482C529.965 569.338 530.085 569.093 530.21 569.02C531.317 568.309 532.453 567.644 533.561 566.928C536.064 565.303 538.077 563.191 539.651 560.668C541.79 557.238 542.97 553.475 543.425 549.479ZM507.533 561.755C505.252 561.016 502.888 560.248 500.459 559.46C502.968 556.804 505.624 554.484 509.201 553.505C510.746 553.082 512.532 553.118 513.587 553.545C511.584 556.266 509.577 558.988 507.533 561.755ZM526.713 573.43C526.133 575.272 525.027 576.772 523.664 578.109C521.97 579.752 519.998 580.979 517.866 582.097C517.738 579.488 517.606 576.936 517.477 574.436C520.701 573.187 523.853 571.969 527.021 570.742C527.144 571.612 526.994 572.533 526.713 573.43ZM538.617 555.963C537.579 558.401 536.219 560.621 534.277 562.46C532.779 563.871 531.081 565.002 529.291 566.009C524.441 568.736 519.241 570.617 513.926 572.207C513.666 572.281 513.507 572.268 513.336 572.031C512.965 571.505 512.549 571 512.157 570.481C512.131 570.452 512.122 570.403 512.084 570.311C512.22 570.202 512.365 570.095 512.512 569.983C515.545 567.663 518.593 565.351 521.627 563.027C522.504 562.364 522.542 561.225 521.73 560.567C521.163 560.105 520.416 560.112 519.762 560.602C517.936 561.989 516.115 563.376 514.294 564.769C512.936 565.803 511.589 566.833 510.178 567.911C509.694 567.28 509.227 566.706 508.805 566.1C508.733 565.992 508.806 565.718 508.903 565.584C510.52 563.181 512.124 560.765 513.807 558.403C515.471 556.059 517.364 553.892 519.446 551.905C521.397 550.027 523.513 548.369 526.07 547.38C527.71 546.744 529.401 546.312 531.149 546.126C531.308 546.103 531.538 546.261 531.65 546.407C533.427 548.695 535.182 550.987 536.943 553.283C537.472 553.966 537.993 554.663 538.538 555.338C538.701 555.541 538.721 555.715 538.617 555.963ZM539.67 552.762C537.915 550.472 536.201 548.243 534.484 546.005C534.486 545.954 534.501 545.894 534.509 545.839C536.508 546.077 538.511 546.321 540.536 546.563C540.498 548.735 540.176 550.723 539.67 552.762Z" fill="#317F8B"/>
<path d="M538.54 555.337C537.995 554.662 537.474 553.965 536.946 553.281C535.186 550.985 533.43 548.694 531.653 546.406C531.541 546.26 531.31 546.102 531.152 546.124C529.404 546.311 527.712 546.743 526.073 547.379C523.515 548.367 521.4 550.025 519.448 551.904C517.366 553.891 515.474 556.058 513.809 558.402C512.127 560.765 510.523 563.181 508.906 565.583C508.809 565.717 508.736 565.991 508.808 566.099C509.228 566.704 509.695 567.279 510.181 567.909C511.591 566.832 512.938 565.801 514.297 564.767C516.118 563.375 517.939 561.987 519.765 560.601C520.419 560.111 521.165 560.105 521.733 560.566C522.545 561.224 522.508 562.364 521.63 563.026C518.596 565.35 515.548 567.662 512.514 569.982C512.368 570.094 512.222 570.201 512.087 570.309C512.124 570.403 512.133 570.451 512.159 570.48C512.552 570.998 512.968 571.504 513.339 572.029C513.51 572.267 513.669 572.28 513.928 572.206C519.244 570.615 524.443 568.735 529.294 566.008C531.082 565.002 532.782 563.87 534.28 562.459C536.22 560.62 537.582 558.4 538.62 555.962C538.722 555.715 538.701 555.541 538.54 555.337ZM533.217 558.834C530.898 560.574 527.616 560.148 525.874 557.87C524.121 555.596 524.563 552.329 526.861 550.565C529.116 548.835 532.399 549.282 534.158 551.558C535.896 553.82 535.472 557.135 533.217 558.834Z" fill="white"/>
<path d="M539.67 552.761C537.913 550.474 536.199 548.243 534.483 546.005C534.489 545.952 534.5 545.896 534.508 545.839C536.507 546.079 538.512 546.322 540.538 546.564C540.5 548.732 540.174 550.723 539.67 552.761Z" fill="#DB2C2C"/>
<path d="M513.587 553.546C511.582 556.264 509.575 558.988 507.533 561.758C505.249 561.013 502.885 560.248 500.458 559.461C502.969 556.802 505.624 554.482 509.2 553.505C510.746 553.08 512.529 553.118 513.587 553.546Z" fill="#DB2C2C"/>
<path d="M523.661 578.109C521.968 579.753 519.998 580.981 517.864 582.097C517.735 579.49 517.605 576.938 517.477 574.436C520.7 573.188 523.852 571.971 527.024 570.741C527.146 571.613 526.993 572.532 526.715 573.432C526.135 575.274 525.029 576.773 523.661 578.109Z" fill="#DB2C2C"/>
<path d="M534.156 551.558C532.399 549.282 529.115 548.836 526.86 550.565C524.562 552.331 524.12 555.596 525.873 557.87C527.615 560.148 530.896 560.574 533.215 558.834C535.472 557.135 535.896 553.82 534.156 551.558ZM531.653 556.912C530.478 557.799 528.752 557.565 527.837 556.396C526.89 555.191 527.149 553.42 528.402 552.494C529.575 551.618 531.334 551.872 532.217 553.047C533.14 554.269 532.886 555.984 531.653 556.912Z" fill="#317F8B"/>
<path d="M531.651 556.912C530.476 557.799 528.75 557.565 527.833 556.394C526.891 555.191 527.146 553.42 528.399 552.494C529.575 551.62 531.331 551.871 532.215 553.044C533.138 554.267 532.887 555.985 531.651 556.912Z" fill="#22A7F0"/>
<path d="M609.331 521.841C609.331 521.841 598.193 516.577 587.734 521.299C577.718 525.821 570.632 558.016 583.609 566.171C591.617 571.205 597.069 566.759 601.601 568.064C608.321 570 622.11 536.851 609.331 521.841Z" fill="white"/>
<g opacity="0.35">
<path d="M614.355 542.793C613.036 556.287 605.883 569.298 601.602 568.064C597.069 566.76 591.618 571.207 583.609 566.174C577.41 562.275 575.791 552.896 576.884 543.66C577.621 549.049 579.709 553.666 583.609 556.116C591.618 561.144 596.951 558.808 601.602 558.007C607.352 557.015 612.04 550.76 614.355 542.793Z" fill="#317F8B"/>
</g>
<path d="M591.821 570.688C589.118 570.688 585.991 570.099 582.507 567.909C579.387 565.949 577.134 562.776 575.811 558.48C574.699 554.875 574.284 550.482 574.609 545.775C574.993 540.202 576.37 534.484 578.482 529.675C580.097 526.001 582.865 521.24 586.88 519.428C598.082 514.37 609.723 519.753 610.213 519.985L610.614 520.174L610.901 520.512C616.75 527.381 617.088 536.871 616.341 543.622C615.499 551.228 612.804 559.297 609.306 564.679C605.802 570.07 602.868 570.569 601.025 570.038C599.828 569.694 598.317 569.934 596.566 570.213C595.183 570.435 593.593 570.688 591.821 570.688ZM597.267 521.382C594.132 521.382 591.225 521.979 588.586 523.172C586.414 524.152 584.109 527.123 582.264 531.324C580.363 535.647 579.074 541.017 578.726 546.059C578.111 554.961 580.292 561.659 584.709 564.435C589.162 567.234 592.596 566.686 595.916 566.157C598.063 565.814 600.09 565.491 602.173 566.091C602.413 566.133 604.129 565.473 606.55 561.296C612.196 551.555 615.777 533.158 608.053 523.527C607.177 523.165 604.924 522.312 601.976 521.802C600.356 521.522 598.784 521.382 597.267 521.382Z" fill="#317F8B"/>
<defs>
<filter id="filter0_b_7_17763" x="-33.0767" y="-33.0767" width="1074.99" height="1090.15" filterUnits="userSpaceOnUse" color-interpolation-filters="sRGB">
<feFlood flood-opacity="0" result="BackgroundImageFix"/>
<feGaussianBlur in="BackgroundImageFix" stdDeviation="16.5384"/>
<feComposite in2="SourceAlpha" operator="in" result="effect1_backgroundBlur_7_17763"/>
<feBlend mode="normal" in="SourceGraphic" in2="effect1_backgroundBlur_7_17763" result="shape"/>
</filter>
</defs>
</svg>
